<svg id="Layer_1" data-name="Layer 1" xmlns="http://www.w3.org/2000/svg" viewBox="0 0 500 500"><defs><style>.cls-1{fill:#f1f2f2;}.cls-1,.cls-3,.cls-8{stroke:#d1d3d4;stroke-miterlimit:10;}.cls-1,.cls-3,.cls-5,.cls-6,.cls-7,.cls-8{stroke-width:9px;}.cls-2{fill:#d1d3d4;}.cls-3,.cls-9{fill:#fff;}.cls-4{fill:#a50064;}.cls-5,.cls-6,.cls-7,.cls-8{fill:none;}.cls-5{stroke:#ff9e18;}.cls-5,.cls-6,.cls-7{stroke-linecap:round;stroke-linejoin:round;}.cls-6{stroke:#e6e7e8;}.cls-7{stroke:#d41367;}</style></defs><path class="cls-1" d="M183.47,316.54H170.4a5.12,5.12,0,0,1-4.72-3.21l0-.06a5.12,5.12,0,0,1,1.07-5.59l9.24-9.24a5.06,5.06,0,0,0,0-7.16L156.19,271.5a5.06,5.06,0,0,0-7.16,0l-9.24,9.24a5.12,5.12,0,0,1-5.59,1.07l-.06,0a5.13,5.13,0,0,1-3.21-4.72V264a5.07,5.07,0,0,0-5.06-5.07h-28A5.07,5.07,0,0,0,92.83,264v13.06a5.11,5.11,0,0,1-3.21,4.72l-.06,0A5.1,5.1,0,0,1,84,280.74l-9.24-9.24a5.07,5.07,0,0,0-7.17,0L47.79,291.28a5.06,5.06,0,0,0,0,7.16L57,307.68a5.12,5.12,0,0,1,1.08,5.59l0,.06a5.1,5.1,0,0,1-4.71,3.21H40.3a5.07,5.07,0,0,0-5.07,5.07v28a5.07,5.07,0,0,0,5.07,5.07H53.37a5.1,5.1,0,0,1,4.71,3.21l0,.06A5.12,5.12,0,0,1,57,363.5l-9.24,9.24a5.06,5.06,0,0,0,0,7.16l19.78,19.78a5.07,5.07,0,0,0,7.17,0L84,390.44a5.1,5.1,0,0,1,5.58-1.07l.06,0a5.11,5.11,0,0,1,3.21,4.72v13.06a5.07,5.07,0,0,0,5.07,5.07h28a5.07,5.07,0,0,0,5.06-5.07V394.11a5.13,5.13,0,0,1,3.21-4.72l.06,0a5.12,5.12,0,0,1,5.59,1.07l9.24,9.24a5.06,5.06,0,0,0,7.16,0L176,379.9a5.06,5.06,0,0,0,0-7.16l-9.24-9.24a5.12,5.12,0,0,1-1.07-5.59l0-.06a5.12,5.12,0,0,1,4.72-3.21h13.07a5.07,5.07,0,0,0,5.06-5.07v-28A5.07,5.07,0,0,0,183.47,316.54Zm-71.59,56.88a37.83,37.83,0,1,1,37.83-37.83A37.83,37.83,0,0,1,111.88,373.42Z"/><path class="cls-2" d="M167.59,161.5h-9.12a3.56,3.56,0,0,1-3.29-2.24l0,0a3.55,3.55,0,0,1,.74-3.89l6.46-6.45a3.55,3.55,0,0,0,0-5l-13.81-13.8a3.54,3.54,0,0,0-5,0l-6.45,6.45a3.59,3.59,0,0,1-3.9.75l0,0a3.57,3.57,0,0,1-2.24-3.29v-9.13a3.53,3.53,0,0,0-3.53-3.53H107.85a3.54,3.54,0,0,0-3.54,3.53V134a3.56,3.56,0,0,1-2.23,3.29l0,0a3.59,3.59,0,0,1-3.9-.75l-6.45-6.45a3.54,3.54,0,0,0-5,0l-13.81,13.8a3.55,3.55,0,0,0,0,5l6.45,6.45a3.55,3.55,0,0,1,.75,3.89l0,0a3.56,3.56,0,0,1-3.29,2.24H67.64A3.54,3.54,0,0,0,64.1,165v19.52a3.55,3.55,0,0,0,3.54,3.54h9.12a3.55,3.55,0,0,1,3.29,2.24l0,0a3.56,3.56,0,0,1-.75,3.9l-6.45,6.45a3.54,3.54,0,0,0,0,5l13.81,13.81a3.54,3.54,0,0,0,5,0l6.45-6.45a3.57,3.57,0,0,1,3.9-.75l0,0a3.56,3.56,0,0,1,2.23,3.29v9.12a3.54,3.54,0,0,0,3.54,3.54h19.53a3.53,3.53,0,0,0,3.53-3.54v-9.12a3.57,3.57,0,0,1,2.24-3.29l0,0a3.57,3.57,0,0,1,3.9.75l6.45,6.45a3.54,3.54,0,0,0,5,0l13.81-13.81a3.54,3.54,0,0,0,0-5l-6.46-6.45a3.56,3.56,0,0,1-.74-3.9l0,0a3.55,3.55,0,0,1,3.29-2.24h9.12a3.55,3.55,0,0,0,3.54-3.54V165A3.54,3.54,0,0,0,167.59,161.5Zm-50,39.5a26.2,26.2,0,1,1,26.21-26.2A26.2,26.2,0,0,1,117.61,201Z"/><rect class="cls-1" x="154.07" y="45" width="207.76" height="410" rx="31.46"/><rect class="cls-3" x="154.07" y="80.09" width="207.76" height="339.82"/><rect class="cls-4" x="182.46" y="108.89" width="150.99" height="127.91" rx="6.39"/><line class="cls-5" x1="380.22" y1="259.33" x2="442.56" y2="259.33"/><line class="cls-6" x1="380.22" y1="229.67" x2="413.08" y2="229.67"/><line class="cls-6" x1="380.22" y1="200" x2="413.08" y2="200"/><line class="cls-5" x1="431.9" y1="200" x2="464.77" y2="200"/><line class="cls-7" x1="380.22" y1="170.74" x2="442.56" y2="170.74"/><line class="cls-7" x1="380.22" y1="141.07" x2="413.08" y2="141.07"/><line class="cls-6" x1="380.22" y1="111.41" x2="413.08" y2="111.41"/><line class="cls-5" x1="431.9" y1="111.41" x2="464.77" y2="111.41"/><line class="cls-8" x1="182.46" y1="265.2" x2="333.45" y2="265.2"/><line class="cls-8" x1="207.13" y1="301.17" x2="308.78" y2="301.17"/><rect class="cls-4" x="238.93" y="343.88" width="38.06" height="38.01" rx="5.53"/><rect class="cls-4" x="182.46" y="343.88" width="38.06" height="38.01" rx="5.53"/><rect class="cls-4" x="295.39" y="343.88" width="38.06" height="38.01" rx="5.53"/><path class="cls-9" d="M224.9,165.3a5.83,5.83,0,0,0-5.83,5.83v17.22a5.83,5.83,0,1,0,11.66,0V171.13a5.83,5.83,0,0,0-5.83-5.83Z"/><path class="cls-9" d="M291,165.3a5.83,5.83,0,0,0-5.83,5.83v17.22a5.83,5.83,0,1,0,11.66,0V171.13A5.83,5.83,0,0,0,291,165.3Z"/><path class="cls-9" d="M279.34,165.3H236.57a1.94,1.94,0,0,0-1.95,1.94v21.11a9.71,9.71,0,0,0,7.78,9.53v7.81a5.84,5.84,0,0,0,11.67,0v-7.61h7.77v7.61a5.84,5.84,0,0,0,11.67,0v-7.81a9.71,9.71,0,0,0,7.78-9.53V167.24a1.94,1.94,0,0,0-2-1.94Z"/><path class="cls-9" d="M272.09,142.24l4.74-4.73a1.94,1.94,0,1,0-2.7-2.8l-.05,0-5.52,5.52a26.6,26.6,0,0,0-21.21,0l-5.52-5.53a1.94,1.94,0,0,0-2.75,2.75l4.74,4.74a20.53,20.53,0,0,0-9.2,17.22,2,2,0,0,0,1.95,1.95h42.78a1.94,1.94,0,0,0,1.94-1.95A20.53,20.53,0,0,0,272.09,142.24Zm-23.86,11.39a1.95,1.95,0,1,1,2-1.94A1.94,1.94,0,0,1,248.23,153.63Zm19.45,0a1.95,1.95,0,1,1,1.94-1.94A1.94,1.94,0,0,1,267.68,153.63Z"/></svg>