<svg id="Layer_1" data-name="Layer 1" xmlns="http://www.w3.org/2000/svg" viewBox="0 0 500 500"><defs><style>.cls-1,.cls-3{fill:#fff;}.cls-1,.cls-5{stroke:#d1d3d4;}.cls-1,.cls-4,.cls-5{stroke-linecap:round;stroke-linejoin:round;stroke-width:9px;}.cls-2{fill:#ff9e18;}.cls-4,.cls-5{fill:none;}.cls-4{stroke:#fff;}.cls-6{fill:#a50064;}</style></defs><rect class="cls-1" x="52.07" y="67" width="395.85" height="209.48" rx="6.66"/><rect class="cls-1" x="52.07" y="313.01" width="106.65" height="119.99"/><rect class="cls-1" x="204.28" y="313.01" width="243.64" height="119.99"/><rect class="cls-2" x="75.45" y="90.32" width="202.56" height="162.84" rx="5.54"/><path class="cls-3" d="M124.71,133h25.51l32.45,77.54H154.73l-4.07-10.34H123.72l-4,10.34H92.26Zm19.58,48.95-7-18.7-7,18.7Z"/><path class="cls-3" d="M185.86,133.52h29.48c30.57,0,45.86,15.07,45.86,37.84v.22c0,22.76-15.62,38.93-46.74,38.93h-28.6Zm30,54.56c11.76,0,19.35-4.84,19.35-16v-.22c0-11.11-7.59-15.95-19.35-15.95H211.6v32.12Z"/><line class="cls-4" x1="92.26" y1="234.27" x2="261.2" y2="234.27"/><line class="cls-4" x1="92.26" y1="109.21" x2="261.2" y2="109.21"/><line class="cls-5" x1="305.56" y1="114.34" x2="421.31" y2="114.34"/><line class="cls-5" x1="305.56" y1="143.04" x2="369.87" y2="143.04"/><line class="cls-5" x1="305.56" y1="200.44" x2="421.31" y2="200.44"/><line class="cls-5" x1="305.56" y1="229.15" x2="421.31" y2="229.15"/><line class="cls-5" x1="235.24" y1="341.9" x2="350.61" y2="341.9"/><line class="cls-5" x1="235.24" y1="373.91" x2="300.71" y2="373.91"/><line class="cls-5" x1="83.91" y1="373" x2="126.88" y2="373"/><path class="cls-6" d="M319.13,237.64,256.29,220.8a6.22,6.22,0,0,0-7.62,7.62l16.84,62.84a6.21,6.21,0,0,0,10.4,2.79l2.51-2.5a6.21,6.21,0,0,1,8.79,0l16.17,16.16a6.21,6.21,0,0,0,8.79,0l23.41-23.41a6.21,6.21,0,0,0,0-8.79l-16.16-16.17a6.21,6.21,0,0,1,0-8.79l2.5-2.5A6.22,6.22,0,0,0,319.13,237.64Z"/></svg>