<svg id="Layer_1" data-name="Layer 1" xmlns="http://www.w3.org/2000/svg" viewBox="0 0 500 500"><defs><style>.cls-1{fill:#fe9738;}.cls-2,.cls-5,.cls-6{fill:none;}.cls-2{stroke:#ff4438;}.cls-2,.cls-4{stroke-miterlimit:10;}.cls-2,.cls-3,.cls-4,.cls-5,.cls-6{stroke-width:9px;}.cls-3{fill:#f1f2f2;}.cls-3,.cls-4,.cls-5,.cls-6{stroke:#d1d3d4;}.cls-3,.cls-5,.cls-6{stroke-linecap:round;stroke-linejoin:round;}.cls-4{fill:#fff;}.cls-6{stroke-dasharray:11.91 11.91;}.cls-7{fill:#ff671d;}.cls-8{fill:#a50064;}.cls-9{fill:#ff9e18;}.cls-10{fill:#d41367;}</style></defs><rect class="cls-1" x="62.51" y="73.76" width="57.93" height="359.98"/><line class="cls-2" x1="120.44" y1="93.97" x2="103.17" y2="93.97"/><line class="cls-2" x1="120.44" y1="118.55" x2="93.21" y2="118.55"/><line class="cls-2" x1="120.44" y1="143.13" x2="103.17" y2="143.13"/><line class="cls-2" x1="120.44" y1="167.71" x2="93.21" y2="167.71"/><line class="cls-2" x1="120.44" y1="192.29" x2="103.17" y2="192.29"/><line class="cls-2" x1="120.44" y1="216.88" x2="93.21" y2="216.88"/><line class="cls-2" x1="120.44" y1="241.46" x2="103.17" y2="241.46"/><line class="cls-2" x1="120.44" y1="266.04" x2="93.21" y2="266.04"/><line class="cls-2" x1="120.44" y1="290.62" x2="103.17" y2="290.62"/><line class="cls-2" x1="120.44" y1="315.2" x2="93.21" y2="315.2"/><line class="cls-2" x1="120.44" y1="339.78" x2="103.17" y2="339.78"/><line class="cls-2" x1="120.44" y1="364.36" x2="93.21" y2="364.36"/><line class="cls-2" x1="120.44" y1="388.94" x2="103.17" y2="388.94"/><line class="cls-2" x1="120.44" y1="413.53" x2="93.21" y2="413.53"/><path class="cls-3" d="M195.06,66.26h0a0,0,0,0,1,0,0V394.38a0,0,0,0,1,0,0H157.68a0,0,0,0,1,0,0V103.64a37.38,37.38,0,0,1,37.38-37.38Z"/><path class="cls-3" d="M189.52,362.57H424.95a0,0,0,0,1,0,0v63.68a0,0,0,0,1,0,0H189.52a31.84,31.84,0,0,1-31.84-31.84v0A31.84,31.84,0,0,1,189.52,362.57Z"/><path class="cls-4" d="M195.06,66.26H426a11.45,11.45,0,0,1,11.45,11.45v273.4A11.45,11.45,0,0,1,426,362.57h-231a0,0,0,0,1,0,0V66.26A0,0,0,0,1,195.06,66.26Z"/><line class="cls-5" x1="189.63" y1="387.12" x2="195.63" y2="387.12"/><line class="cls-6" x1="207.54" y1="387.12" x2="392.1" y2="387.12"/><line class="cls-5" x1="398.05" y1="387.12" x2="404.05" y2="387.12"/><line class="cls-5" x1="189.63" y1="406.79" x2="195.63" y2="406.79"/><line class="cls-6" x1="207.54" y1="406.79" x2="392.1" y2="406.79"/><line class="cls-5" x1="398.05" y1="406.79" x2="404.05" y2="406.79"/><rect class="cls-7" x="211.97" y="82.01" width="208.61" height="91.02"/><rect class="cls-8" x="211.97" y="285.97" width="208.61" height="60.46"/><rect class="cls-9" x="211.97" y="184.81" width="98.48" height="91.02"/><rect class="cls-10" x="322.09" y="184.81" width="98.48" height="91.02"/></svg>