<svg id="Layer_1" data-name="Layer 1" xmlns="http://www.w3.org/2000/svg" viewBox="0 0 500 500"><defs><style>.cls-1{fill:#fff;}.cls-1,.cls-2{stroke:#d1d3d4;}.cls-1,.cls-8{stroke-linecap:round;stroke-linejoin:round;}.cls-1,.cls-2,.cls-8{stroke-width:9px;}.cls-2{fill:#f1f2f2;stroke-miterlimit:10;}.cls-3{fill:#ff9e18;}.cls-4{fill:#ff671d;}.cls-5{fill:#ff4438;}.cls-6{fill:#d41367;}.cls-7{fill:#a50064;}.cls-8{fill:none;stroke:#ff9e18;}</style></defs><path class="cls-1" d="M79.62,419.18A12.66,12.66,0,0,1,67,406.56V192l2.65-2,1.58,2H428.77l1.58-2,2.65,2V406.56a12.66,12.66,0,0,1-12.62,12.62"/><path class="cls-2" d="M430.35,190l-1.58,2L256.31,324.52H243.69L71.23,192l-1.58-2,60.45-47,83.17-64.56,29.09-22.59a12.35,12.35,0,0,1,15.28,0l29.09,22.59L369.9,143Z"/><path class="cls-1" d="M369.9,91V237.25L256.31,324.52H243.69L130.1,237.25V91a12.66,12.66,0,0,1,12.62-12.62H357.28A12.66,12.66,0,0,1,369.9,91Z"/><path class="cls-3" d="M265.21,218.8a11.66,11.66,0,0,1,14.67-6.52.29.29,0,0,1,.13.05c.23.08.45.18.68.28l.16.07a79.37,79.37,0,0,1,25.37,17.07,11.64,11.64,0,0,1-16.38,16.55l-.09-.09-.09-.09A56.09,56.09,0,0,0,271.52,234,11.64,11.64,0,0,1,265.21,218.8Z"/><path class="cls-4" d="M250,206.45l-11.63,11.63L235.45,221l-25.21,25.2a11.64,11.64,0,0,1-16.46-16.46A79.22,79.22,0,0,1,250,206.45Z"/><path class="cls-5" d="M306.22,150.23,250,206.45a79.24,79.24,0,0,0-56.22,23.28L250,173.51A79.28,79.28,0,0,0,306.22,150.23Z"/><path class="cls-6" d="M289.5,134l-11.28,11.27L264.55,159l-2.91,2.91L250,173.51a79.28,79.28,0,0,1-56.22-23.28,11.64,11.64,0,0,1,16.46-16.47,55.93,55.93,0,0,0,17.7,12l.06,0,1,.41a56.44,56.44,0,0,0,42,0l1-.41.06,0A56,56,0,0,0,289.5,134Z"/><path class="cls-7" d="M306.22,150.23A79.28,79.28,0,0,1,250,173.51l11.64-11.64,2.91-2.91,13.67-13.67L289.5,134l.25-.26.09-.09,0,0a11.65,11.65,0,0,1,16.35,16.59Z"/><path class="cls-1" d="M326.55,419.18h93.83A12.51,12.51,0,0,0,430.54,414L286,301.74l-28.33-22a12.35,12.35,0,0,0-15.28,0l-28.33,22L69.46,414a12.51,12.51,0,0,0,10.16,5.18h93.83"/><circle class="cls-8" cx="250" cy="394.15" r="30.75"/><path class="cls-8" d="M286.2,432.41a52.67,52.67,0,1,1,16.47-38.26"/><path class="cls-8" d="M302.67,394.15a11,11,0,0,1-21.92,0"/></svg>