<svg id="Layer_1" data-name="Layer 1" xmlns="http://www.w3.org/2000/svg" viewBox="0 0 500 500"><defs><style>.cls-1,.cls-5{fill:#fff;}.cls-1,.cls-3,.cls-4{stroke:#d1d3d4;}.cls-1{stroke-miterlimit:10;}.cls-1,.cls-3,.cls-4,.cls-6{stroke-width:9px;}.cls-2{fill:#a50064;}.cls-3,.cls-4,.cls-6{fill:none;stroke-linecap:round;stroke-linejoin:round;}.cls-4{stroke-dasharray:20.33 20.33;}.cls-6{stroke:#fff;}</style></defs><rect class="cls-1" x="46.87" y="85" width="406.26" height="234.56" rx="10.69"/><rect class="cls-2" x="149.95" y="16.39" width="200.09" height="371.79" rx="3.59" transform="translate(452.28 -47.72) rotate(90)"/><line class="cls-3" x1="46.87" y1="415" x2="56.87" y2="415"/><line class="cls-4" x1="77.2" y1="415" x2="432.96" y2="415"/><line class="cls-3" x1="443.13" y1="415" x2="453.13" y2="415"/><line class="cls-3" x1="46.87" y1="367.28" x2="453.13" y2="367.28"/><path class="cls-5" d="M275.28,151.75l-13.11,0c-14.74,0-24.26,9.76-24.26,24.88v11.47H224.73a2.06,2.06,0,0,0-2.06,2.06v16.63a2.06,2.06,0,0,0,2.06,2.06h13.18v41.95a2.07,2.07,0,0,0,2.07,2.06h17.19a2.07,2.07,0,0,0,2.07-2.06V208.83h15.41a2.06,2.06,0,0,0,2.06-2.06V190.14a2.05,2.05,0,0,0-.61-1.45,2,2,0,0,0-1.45-.61H259.24v-9.72c0-4.68,1.11-7.05,7.2-7.05h8.83a2.05,2.05,0,0,0,2.06-2.05V153.81A2.05,2.05,0,0,0,275.28,151.75Z"/><line class="cls-6" x1="84.11" y1="250" x2="117.99" y2="250"/><line class="cls-6" x1="84.11" y1="276.89" x2="141.54" y2="276.89"/></svg>