<svg id="Layer_1" data-name="Layer 1" xmlns="http://www.w3.org/2000/svg" viewBox="0 0 500 500"><defs><style>.cls-1,.cls-9{fill:none;}.cls-1,.cls-7,.cls-8,.cls-9{stroke:#d1d3d4;stroke-linecap:round;stroke-linejoin:round;stroke-width:9px;}.cls-2{fill:#d41367;}.cls-3{fill:#ff671d;}.cls-4{fill:#ff4438;}.cls-5{fill:#ff9e18;}.cls-6{fill:#a50064;}.cls-7{fill:#f1f2f2;}.cls-8{fill:#fff;}.cls-9{stroke-dasharray:12.2 12.2;}</style></defs><path class="cls-1" d="M84.15,362.1a190.4,190.4,0,0,1-25.54-95.57C58.61,160.83,144.3,75.14,250,75.14s191.39,85.69,191.39,191.39a190.58,190.58,0,0,1-23.1,91.23"/><rect class="cls-2" x="149.25" y="256.85" width="201.51" height="29.89" rx="13.6"/><path class="cls-3" d="M337.15,286.74H162.85s-6,29,28.19,40.44a57.37,57.37,0,0,0,18.12,2.87h81.68A57.32,57.32,0,0,0,309,327.18C343.16,315.76,337.15,286.74,337.15,286.74Z"/><path class="cls-4" d="M162.44,246.19v16.08a8,8,0,0,0,13.14,6.16,12.85,12.85,0,0,1,8.74-3.18c10.94,0,10.94,8.67,21.88,8.67s10.94-8.67,21.88-8.67S239,273.92,250,273.92s10.94-8.67,21.88-8.67,10.94,8.67,21.88,8.67,10.94-8.67,21.88-8.67a12.85,12.85,0,0,1,8.74,3.18,8,8,0,0,0,13.14-6.16V246.19Z"/><path class="cls-5" d="M162.53,233.31v13H181.3a7.07,7.07,0,0,1,7.06,7.07v37.44a9,9,0,1,0,18.07,0V253.38a7.08,7.08,0,0,1,7.07-7.07h124v-13Z"/><path class="cls-2" d="M337.15,234.2H162.85a13.6,13.6,0,0,1-13.6-13.6v-2.68a13.6,13.6,0,0,1,13.6-13.6h174.3a13.6,13.6,0,0,1,13.6,13.6v2.68a13.6,13.6,0,0,1-13.6,13.6Zm0,0"/><path class="cls-3" d="M348.27,189.62c-7.59-21.44-30.46-58.15-98.27-59.13-67.95,1-90.77,37.84-98.31,59.25a11.31,11.31,0,0,0,10.7,15H337.61A11.34,11.34,0,0,0,348.27,189.62Z"/><path class="cls-6" d="M226,151.23a2.94,2.94,0,0,0-4,1.19l-2.64,4.88a2.94,2.94,0,0,0,1.19,4,2.9,2.9,0,0,0,1.39.35,3,3,0,0,0,2.6-1.54l2.63-4.88A2.94,2.94,0,0,0,226,151.23Z"/><path class="cls-6" d="M250,150.55a2.94,2.94,0,0,0-2.94,2.94V159a2.95,2.95,0,0,0,5.89,0v-5.55A2.94,2.94,0,0,0,250,150.55Z"/><path class="cls-6" d="M280.59,157.18l-2.78-4.79a2.95,2.95,0,0,0-5.1,3l2.79,4.8a2.94,2.94,0,1,0,5.09-3Z"/><polygon class="cls-7" points="180.36 424.86 27.25 424.86 70.7 382.98 27.25 341.1 180.36 341.1 180.36 424.86"/><polygon class="cls-7" points="319.64 424.86 472.75 424.86 429.3 382.98 472.75 341.1 319.64 341.1 319.64 424.86"/><rect class="cls-8" x="110.72" y="320.22" width="278.56" height="83.76"/><line class="cls-1" x1="152.5" y1="362.1" x2="158.5" y2="362.1"/><line class="cls-9" x1="170.7" y1="362.1" x2="335.4" y2="362.1"/><line class="cls-1" x1="341.5" y1="362.1" x2="347.5" y2="362.1"/></svg>