<svg id="Layer_1" data-name="Layer 1" xmlns="http://www.w3.org/2000/svg" viewBox="0 0 500 500"><defs><style>.cls-1{fill:#f1f2f2;}.cls-1,.cls-2{stroke:#d1d3d4;stroke-linecap:round;stroke-linejoin:round;stroke-width:9px;}.cls-2{fill:#fff;}.cls-3{fill:#d41367;}.cls-4{fill:#ff671d;}.cls-5{fill:#ff4438;}.cls-6{fill:#ff9e18;}.cls-7{fill:#a50064;}</style></defs><polygon class="cls-1" points="408.86 213.28 250 160.63 250 265.94 408.86 213.28"/><polygon class="cls-2" points="91.14 213.28 250 160.63 250 265.94 91.14 213.28"/><rect class="cls-3" x="149.25" y="192.32" width="201.51" height="29.89" rx="13.6"/><path class="cls-4" d="M337.15,222.21H162.85s-6,29,28.19,40.44a57.09,57.09,0,0,0,18.12,2.87h81.68A57,57,0,0,0,309,262.65C343.16,251.23,337.15,222.21,337.15,222.21Z"/><path class="cls-5" d="M162.44,181.67v16.07a8,8,0,0,0,13.14,6.16,12.85,12.85,0,0,1,8.74-3.17c10.94,0,10.94,8.66,21.88,8.66s10.94-8.66,21.88-8.66S239,209.39,250,209.39s10.94-8.66,21.88-8.66,10.94,8.66,21.88,8.66,10.94-8.66,21.88-8.66a12.85,12.85,0,0,1,8.74,3.17,8,8,0,0,0,13.14-6.16V181.67Z"/><path class="cls-6" d="M162.53,168.79v13H181.3a7.07,7.07,0,0,1,7.06,7.07v37.44a9,9,0,1,0,18.07,0V188.85a7.08,7.08,0,0,1,7.07-7.07h124v-13Z"/><path class="cls-3" d="M337.15,169.67H162.85a13.6,13.6,0,0,1-13.6-13.6v-2.68a13.6,13.6,0,0,1,13.6-13.6h174.3a13.6,13.6,0,0,1,13.6,13.6v2.68a13.6,13.6,0,0,1-13.6,13.6Zm0,0"/><path class="cls-4" d="M348.27,125.09C340.68,103.65,317.81,66.94,250,66c-67.95,1-90.77,37.84-98.31,59.26a11.3,11.3,0,0,0,10.7,15H337.61A11.33,11.33,0,0,0,348.27,125.09Z"/><path class="cls-7" d="M226,86.71a2.93,2.93,0,0,0-4,1.18l-2.64,4.89a2.94,2.94,0,1,0,5.18,2.79l2.63-4.88A2.93,2.93,0,0,0,226,86.71Z"/><path class="cls-7" d="M250,86A2.94,2.94,0,0,0,247,89v5.55a2.95,2.95,0,0,0,5.89,0V89A3,3,0,0,0,250,86Z"/><path class="cls-7" d="M280.59,92.66l-2.78-4.8a2.95,2.95,0,0,0-5.1,3l2.79,4.8a2.94,2.94,0,0,0,5.09-3Z"/><polygon class="cls-1" points="250 265.94 250 450.26 408.86 397.6 408.86 213.28 250 265.94"/><polygon class="cls-2" points="91.14 213.28 91.14 397.6 250 450.26 250 265.94 91.14 213.28"/><polygon class="cls-2" points="91.14 213.28 45.43 285.9 204.28 338.56 250 265.94 91.14 213.28"/><polygon class="cls-1" points="408.86 213.28 250 265.94 295.71 338.56 454.57 285.9 408.86 213.28"/></svg>