<svg id="Layer_1" data-name="Layer 1" xmlns="http://www.w3.org/2000/svg" viewBox="0 0 500 500"><defs><style>.cls-1{fill:#f1f2f2;}.cls-1,.cls-3{stroke:#d1d3d4;stroke-linecap:round;stroke-linejoin:round;stroke-width:9px;}.cls-2{fill:#fff;}.cls-3{fill:none;}.cls-4{fill:#ff671d;}.cls-5{fill:#fe9738;}.cls-6{fill:#d1d3d4;}.cls-7{fill:#d41367;}.cls-8{fill:#a50064;}</style></defs><rect class="cls-1" x="29.17" y="102.22" width="441.66" height="315.12" rx="14.73"/><path class="cls-2" d="M250,397.78a235.31,235.31,0,0,0-200.38,0V82.66a235.31,235.31,0,0,1,200.38,0Z"/><path class="cls-3" d="M250,397.78a235.31,235.31,0,0,0-200.38,0V82.66a235.31,235.31,0,0,1,200.38,0Z"/><path class="cls-4" d="M69.62,181.11V94.66a188.33,188.33,0,0,1,160.38,0v86.45A188.33,188.33,0,0,0,69.62,181.11Z"/><path class="cls-5" d="M69.62,275.67V189.22a188.33,188.33,0,0,1,160.38,0v86.45A188.33,188.33,0,0,0,69.62,275.67Z"/><path class="cls-6" d="M69.62,370.22V283.77a188.33,188.33,0,0,1,160.38,0v86.45A188.33,188.33,0,0,0,69.62,370.22Z"/><path class="cls-2" d="M250,397.78a235.31,235.31,0,0,1,200.38,0V82.66a235.31,235.31,0,0,0-200.38,0Z"/><path class="cls-3" d="M250,397.78a235.31,235.31,0,0,1,200.38,0V82.66a235.31,235.31,0,0,0-200.38,0Z"/><path class="cls-6" d="M430.38,181.11V94.66a188.33,188.33,0,0,0-160.38,0v86.45A188.33,188.33,0,0,1,430.38,181.11Z"/><path class="cls-7" d="M430.38,275.67V189.22a188.33,188.33,0,0,0-160.38,0v86.45A188.33,188.33,0,0,1,430.38,275.67Z"/><path class="cls-8" d="M430.38,370.22V283.77a188.33,188.33,0,0,0-160.38,0v86.45A188.33,188.33,0,0,1,430.38,370.22Z"/></svg>