<svg id="Layer_1" data-name="Layer 1" xmlns="http://www.w3.org/2000/svg" viewBox="0 0 500 500"><defs><style>.cls-1,.cls-6{fill:#fff;}.cls-1,.cls-2,.cls-7{stroke:#d1d3d4;}.cls-1,.cls-2{stroke-miterlimit:10;}.cls-1,.cls-2,.cls-7,.cls-9{stroke-width:9px;}.cls-2{fill:#f1f2f2;}.cls-3{fill:#a50064;}.cls-4{fill:#ff9e18;}.cls-5{fill:#d41367;}.cls-7,.cls-9{fill:none;stroke-linecap:round;stroke-linejoin:round;}.cls-8{fill:#ff4438;}.cls-9{stroke:#fff;}</style></defs><path class="cls-1" d="M45,433.35A21.65,21.65,0,0,0,66.65,455h366.7A21.65,21.65,0,0,0,455,433.35V96.48H45Z"/><path class="cls-2" d="M433.35,45H66.65A21.65,21.65,0,0,0,45,66.65V96.48H455V66.65A21.65,21.65,0,0,0,433.35,45Z"/><circle class="cls-3" cx="78.53" cy="70.74" r="7.73"/><circle class="cls-4" cx="101.29" cy="70.74" r="7.73"/><circle class="cls-5" cx="124.05" cy="70.74" r="7.73"/><rect class="cls-6" x="221.2" y="63.01" width="208" height="15.46" rx="7.73"/><rect class="cls-4" x="70.8" y="124.89" width="358.4" height="128.34" rx="2.7"/><path class="cls-5" d="M126.2,207.69s55.11-78,153.6-32.22-127.11,57.8-127.11,57.8Z"/><line class="cls-7" x1="71.09" y1="395.93" x2="126.2" y2="395.93"/><line class="cls-7" x1="145.16" y1="395.93" x2="160.21" y2="395.93"/><line class="cls-7" x1="160.21" y1="423.07" x2="105.1" y2="423.07"/><line class="cls-7" x1="86.13" y1="423.07" x2="71.09" y2="423.07"/><rect class="cls-3" x="71.09" y="279.05" width="89.12" height="89.12" rx="4.09"/><line class="cls-7" x1="205.72" y1="395.93" x2="260.84" y2="395.93"/><line class="cls-7" x1="279.8" y1="395.93" x2="294.85" y2="395.93"/><line class="cls-7" x1="294.85" y1="423.07" x2="239.73" y2="423.07"/><line class="cls-7" x1="220.77" y1="423.07" x2="205.72" y2="423.07"/><rect class="cls-5" x="205.72" y="279.05" width="89.12" height="89.12" rx="4.09"/><line class="cls-7" x1="340.36" y1="395.93" x2="395.47" y2="395.93"/><line class="cls-7" x1="414.44" y1="395.93" x2="429.48" y2="395.93"/><line class="cls-7" x1="429.48" y1="423.07" x2="374.37" y2="423.07"/><line class="cls-7" x1="355.41" y1="423.07" x2="340.36" y2="423.07"/><rect class="cls-8" x="340.36" y="279.05" width="89.12" height="89.12" rx="4.09"/><path class="cls-8" d="M426.5,253.23a2.7,2.7,0,0,0,2.7-2.7V233.84s-28.67-51.91-88.84-69S255.65,219,178.07,204.75,73.5,253.23,73.5,253.23Z"/><circle class="cls-5" cx="390.87" cy="155.08" r="16.5"/><line class="cls-9" x1="369.39" y1="323.62" x2="400.45" y2="323.62"/><line class="cls-9" x1="234.76" y1="323.62" x2="265.81" y2="323.62"/><line class="cls-9" x1="100.12" y1="323.62" x2="131.18" y2="323.62"/></svg>