<svg id="Layer_1" data-name="Layer 1" xmlns="http://www.w3.org/2000/svg" viewBox="0 0 500 500"><defs><style>.cls-1,.cls-5,.cls-7{fill:#fff;}.cls-1,.cls-3,.cls-4,.cls-5{stroke:#d1d3d4;}.cls-1{stroke-miterlimit:10;}.cls-1,.cls-3,.cls-4,.cls-5,.cls-6{stroke-width:9px;}.cls-2{fill:#ff9e18;}.cls-3,.cls-4,.cls-6{fill:none;}.cls-3,.cls-4,.cls-5,.cls-6{stroke-linecap:round;stroke-linejoin:round;}.cls-4{stroke-dasharray:20.33 20.33;}.cls-6{stroke:#fff;}</style></defs><rect class="cls-1" x="46.87" y="85" width="406.26" height="234.56" rx="10.69"/><rect class="cls-2" x="149.95" y="16.39" width="200.09" height="371.79" rx="3.59" transform="translate(452.28 -47.72) rotate(90)"/><line class="cls-3" x1="46.87" y1="415" x2="56.87" y2="415"/><line class="cls-4" x1="77.2" y1="415" x2="432.96" y2="415"/><line class="cls-3" x1="443.13" y1="415" x2="453.13" y2="415"/><line class="cls-5" x1="46.87" y1="367.28" x2="453.13" y2="367.28"/><line class="cls-6" x1="84.11" y1="250" x2="117.99" y2="250"/><line class="cls-6" x1="84.11" y1="276.89" x2="141.54" y2="276.89"/><path class="cls-7" d="M280.13,180.2c-12.07,0-20.18,6.62-23.48,12.9h-.35V182.2H232.48v79.95h24.8V222.56c0-10.42,2-20.5,14.88-20.5,12.72,0,12.91,11.9,12.91,21.17v38.93h24.8V218.23C309.87,196.75,305.25,180.2,280.13,180.2Z"/><rect class="cls-7" x="192.1" y="182.21" width="24.83" height="79.95"/><path class="cls-7" d="M204.51,142.41a14.45,14.45,0,1,0,14.38,14.38A14.38,14.38,0,0,0,204.51,142.41Z"/></svg>