<svg id="Layer_1" data-name="Layer 1" xmlns="http://www.w3.org/2000/svg" viewBox="0 0 500 500"><defs><style>.cls-1{fill:#fff;stroke:#d1d3d4;stroke-miterlimit:10;stroke-width:9px;}.cls-2{fill:#ff9e18;}.cls-3{fill:#ff671d;}.cls-4{fill:#ff4438;}.cls-5{fill:#d41367;}.cls-6{fill:#a50064;}</style></defs><rect class="cls-1" x="75" y="75" width="350" height="350"/><rect class="cls-1" x="45" y="45" width="60" height="60" rx="5.37"/><rect class="cls-1" x="220" y="45" width="60" height="60" rx="5.37"/><rect class="cls-1" x="395" y="45" width="60" height="60" rx="5.37"/><rect class="cls-1" x="45" y="220" width="60" height="60" rx="5.37"/><rect class="cls-1" x="395" y="220" width="60" height="60" rx="5.37"/><rect class="cls-1" x="45" y="395" width="60" height="60" rx="5.37"/><rect class="cls-1" x="220" y="395" width="60" height="60" rx="5.37"/><rect class="cls-1" x="395" y="395" width="60" height="60" rx="5.37"/><path class="cls-2" d="M277.84,302.74a21.35,21.35,0,0,1,26.86-11.93.59.59,0,0,1,.24.09q.62.23,1.23.51l.3.12a145.35,145.35,0,0,1,46.43,31.25,21.31,21.31,0,0,1-30,30.3l-.16-.16-.18-.18a102.42,102.42,0,0,0-33.2-22.15A21.32,21.32,0,0,1,277.84,302.74Z"/><path class="cls-3" d="M250,280.13l-21.3,21.29-5.33,5.33-46.13,46.13a21.31,21.31,0,0,1-30.14-30.13A145,145,0,0,1,250,280.13Z"/><path class="cls-4" d="M352.91,177.22,250,280.13a145.07,145.07,0,0,0-102.91,42.62L250,219.84A145.09,145.09,0,0,0,352.91,177.22Z"/><path class="cls-5" d="M322.3,147.55l-20.64,20.63-25,25-5.32,5.32L250,219.84a145.11,145.11,0,0,1-102.91-42.62,21.31,21.31,0,0,1,30.14-30.14A102.48,102.48,0,0,0,209.62,169l.12.05,1.79.75a103.44,103.44,0,0,0,76.94,0l1.79-.75.12-.05A102.46,102.46,0,0,0,322.3,147.55Z"/><path class="cls-6" d="M352.91,177.22A145.09,145.09,0,0,1,250,219.84l21.31-21.31,5.32-5.32,25-25,20.64-20.63.46-.47c.05-.05.12-.1.17-.16l.05,0a21.31,21.31,0,0,1,29.93,30.35Z"/></svg>