<svg id="Layer_1" data-name="Layer 1" xmlns="http://www.w3.org/2000/svg" viewBox="0 0 500 500"><defs><style>.cls-1{fill:#fff;}.cls-1,.cls-7,.cls-8{stroke:#d1d3d4;stroke-width:9px;}.cls-1,.cls-7{stroke-miterlimit:10;}.cls-2{fill:#ff9e18;}.cls-3{fill:#ff671d;}.cls-4{fill:#ff4438;}.cls-5{fill:#d41367;}.cls-6{fill:#a50064;}.cls-7{fill:#f1f2f2;}.cls-8{fill:none;stroke-linecap:round;stroke-linejoin:round;}</style></defs><rect class="cls-1" x="69.59" y="72.43" width="226.68" height="226.68"/><rect class="cls-1" x="50.16" y="53" width="38.86" height="38.86" rx="3.48"/><rect class="cls-1" x="163.5" y="53" width="38.86" height="38.86" rx="3.48"/><rect class="cls-1" x="276.85" y="53" width="38.86" height="38.86" rx="3.48"/><rect class="cls-1" x="50.16" y="166.34" width="38.86" height="38.86" rx="3.48"/><rect class="cls-1" x="50.16" y="279.68" width="38.86" height="38.86" rx="3.48"/><path class="cls-2" d="M200.8,219.13A13.75,13.75,0,0,1,218,211.58a.32.32,0,0,1,.15.06,7.68,7.68,0,0,1,.79.32,1,1,0,0,1,.19.08A93.39,93.39,0,0,1,249,231.8a13.34,13.34,0,0,1,0,19.06,13.81,13.81,0,0,1-19.23.1l-.1-.1-.11-.12a65.72,65.72,0,0,0-21.31-14A13.42,13.42,0,0,1,200.8,219.13Z"/><path class="cls-3" d="M182.93,204.82l-13.67,13.47-3.42,3.37-29.59,29.17a13.81,13.81,0,0,1-19.34,0,13.35,13.35,0,0,1,0-19.05A93.73,93.73,0,0,1,182.93,204.82Z"/><path class="cls-4" d="M249,139.75l-66,65.07a93.75,93.75,0,0,0-66,27l66-65.08A93.79,93.79,0,0,0,249,139.75Z"/><path class="cls-5" d="M229.32,121l-13.24,13L200,149.86l-3.41,3.36L182.93,166.7a93.78,93.78,0,0,1-66-26.95,13.36,13.36,0,0,1,0-19.06,13.81,13.81,0,0,1,19.34,0A65.65,65.65,0,0,0,157,134.54l.07,0,1.16.47a67.12,67.12,0,0,0,49.35,0l1.16-.47.07,0A65.57,65.57,0,0,0,229.32,121Z"/><path class="cls-6" d="M249,139.75a93.79,93.79,0,0,1-66,26.95l13.68-13.48,3.41-3.36L216.08,134l13.24-13c.1-.1.2-.19.29-.29l.11-.1,0,0a13.81,13.81,0,0,1,19.2.14A13.36,13.36,0,0,1,249,139.75Z"/><rect class="cls-7" x="164.68" y="280.31" width="288.74" height="187.46" rx="11.29"/><circle class="cls-6" cx="215.42" cy="338.02" r="18.58"/><rect class="cls-2" x="326.37" y="329.86" width="94.88" height="18.49" rx="9.24"/><rect class="cls-2" x="355.7" y="370" width="65.56" height="18.49" rx="9.24"/><rect class="cls-6" x="355.7" y="410.14" width="65.56" height="18.49" rx="9.24"/><rect class="cls-4" x="196.84" y="410.14" width="85.75" height="18.49" rx="9.24"/><line class="cls-8" x1="328.68" y1="242.42" x2="453.42" y2="242.42"/><line class="cls-8" x1="453.42" y1="223.34" x2="453.42" y2="261.5"/><line class="cls-8" x1="124.68" y1="334.76" x2="124.68" y2="467.77"/><line class="cls-8" x1="143.76" y1="467.77" x2="105.59" y2="467.77"/></svg>