<svg id="Layer_1" data-name="Layer 1" xmlns="http://www.w3.org/2000/svg" viewBox="0 0 500 500"><defs><style>.cls-1{fill:#fff;stroke:#d1d3d4;stroke-miterlimit:10;stroke-width:9px;}.cls-2{fill:#ff9e18;}.cls-3{fill:#ff671d;}.cls-4{fill:#ff4438;}.cls-5{fill:#d41367;}.cls-6{fill:#a50064;}</style></defs><ellipse class="cls-1" cx="250" cy="250" rx="183.77" ry="181.14"/><ellipse class="cls-1" cx="379.94" cy="378.09" rx="50" ry="49.29"/><path class="cls-2" d="M369.27,401.13c21.71,0,33.59-17.73,33.59-33.1,0-.51,0-1,0-1.51a23.86,23.86,0,0,0,5.88-6,23.92,23.92,0,0,1-6.78,1.83,11.74,11.74,0,0,0,5.2-6.44,24.15,24.15,0,0,1-7.5,2.83A11.84,11.84,0,0,0,391,355a11.72,11.72,0,0,0-11.8,11.63,11.6,11.6,0,0,0,.3,2.66,33.69,33.69,0,0,1-24.33-12.16,11.43,11.43,0,0,0-1.6,5.85,11.56,11.56,0,0,0,5.25,9.68,11.75,11.75,0,0,1-5.34-1.45v.15A11.69,11.69,0,0,0,363,382.81a12.35,12.35,0,0,1-3.12.4,11.61,11.61,0,0,1-2.22-.21,11.82,11.82,0,0,0,11,8.09,23.91,23.91,0,0,1-14.66,5,26.36,26.36,0,0,1-2.82-.16,33.79,33.79,0,0,0,18.1,5.22"/><ellipse class="cls-1" cx="120.06" cy="378.09" rx="50" ry="49.29"/><path class="cls-2" d="M146.84,362.08c-1.59-2.79-3.32-3.3-6.82-3.5s-12.32-.33-20-.33-16.46.1-20,.33-5.22.71-6.83,3.5-2.47,7.56-2.47,16h0c0,8.4.84,13.23,2.47,16s3.33,3.29,6.83,3.52,12.32.32,20,.32,16.45-.12,20-.32,5.23-.74,6.82-3.52,2.48-7.58,2.48-16v0h0C149.32,369.64,148.49,364.86,146.84,362.08Zm-34.1,26.83V367.27L131,378.09Z"/><ellipse class="cls-1" cx="120.06" cy="121.91" rx="50" ry="49.29"/><path class="cls-2" d="M134,94.48h-7.22c-8.12,0-13.36,5.3-13.36,13.51v6.23h-7.26a1.13,1.13,0,0,0-1.14,1.11v9a1.13,1.13,0,0,0,1.14,1.12h7.26v22.77a1.13,1.13,0,0,0,1.14,1.12H124a1.13,1.13,0,0,0,1.13-1.12V125.47h8.49a1.13,1.13,0,0,0,1.14-1.12v-9a1.11,1.11,0,0,0-1.14-1.11h-8.49v-5.28c0-2.54.62-3.83,4-3.83H134a1.13,1.13,0,0,0,1.14-1.12V95.6A1.13,1.13,0,0,0,134,94.48Zm0,0"/><ellipse class="cls-1" cx="379.94" cy="121.91" rx="50" ry="49.29"/><path class="cls-2" d="M406.39,111.12a18.89,18.89,0,0,0-1.24-6.36,12.72,12.72,0,0,0-3.07-4.65,13.17,13.17,0,0,0-4.71-3,19.74,19.74,0,0,0-6.45-1.22c-2.84-.13-3.75-.16-11-.16s-8.12,0-10.95.15a19.68,19.68,0,0,0-6.45,1.22,13.06,13.06,0,0,0-4.72,3,12.82,12.82,0,0,0-3.06,4.64,18.94,18.94,0,0,0-1.24,6.36c-.13,2.8-.17,3.69-.17,10.81s0,8,.16,10.8a18.7,18.7,0,0,0,1.24,6.36,12.84,12.84,0,0,0,3.07,4.65,13.17,13.17,0,0,0,4.71,3A19.77,19.77,0,0,0,369,148c2.83.13,3.74.16,10.95.16s8.13,0,11-.16a19.71,19.71,0,0,0,6.45-1.21,13.51,13.51,0,0,0,7.78-7.67,19,19,0,0,0,1.24-6.36c.12-2.8.15-3.69.15-10.8S406.51,113.91,406.39,111.12Zm-4.79,21.39a14.23,14.23,0,0,1-.91,4.87,8.77,8.77,0,0,1-5.05,5,14.75,14.75,0,0,1-4.93.9c-2.81.13-3.65.16-10.74.16s-8,0-10.74-.16a14.71,14.71,0,0,1-4.94-.9,8.18,8.18,0,0,1-3.05-1.95,8.29,8.29,0,0,1-2-3,14.27,14.27,0,0,1-.91-4.86c-.12-2.77-.16-3.6-.16-10.59s0-7.83.16-10.59a14.16,14.16,0,0,1,.91-4.86,8,8,0,0,1,2-3,8.28,8.28,0,0,1,3.05-2,15.31,15.31,0,0,1,4.94-.9c2.8-.12,3.64-.15,10.74-.15s7.94,0,10.74.15a15.23,15.23,0,0,1,4.93.9,8.2,8.2,0,0,1,3.05,2,8.09,8.09,0,0,1,2,3,14.22,14.22,0,0,1,.91,4.86c.13,2.77.16,3.6.16,10.59S401.73,129.75,401.6,132.51Z"/><path class="cls-2" d="M380,108.45a13.47,13.47,0,1,0,13.66,13.47A13.56,13.56,0,0,0,380,108.45Zm0,22.2a8.74,8.74,0,1,1,8.86-8.73A8.8,8.8,0,0,1,380,130.65Z"/><path class="cls-2" d="M397.34,107.92a3.19,3.19,0,1,1-3.19-3.14,3.17,3.17,0,0,1,3.19,3.14Z"/><path class="cls-2" d="M270.39,288.07a15.7,15.7,0,0,1,19.67-8.61.41.41,0,0,1,.17.07c.31.1.6.23.91.36l.21.09a106.63,106.63,0,0,1,34,22.56,15.23,15.23,0,0,1,0,21.75,15.76,15.76,0,0,1-21.95.12l-.12-.12-.13-.12a75.32,75.32,0,0,0-24.31-16A15.31,15.31,0,0,1,270.39,288.07Z"/><path class="cls-3" d="M250,271.75l-15.6,15.37-3.9,3.85-33.78,33.3a15.76,15.76,0,0,1-22.07,0,15.24,15.24,0,0,1,0-21.76A107,107,0,0,1,250,271.75Z"/><path class="cls-4" d="M325.36,197.46,250,271.75a107,107,0,0,0-75.36,30.76L250,228.23A107,107,0,0,0,325.36,197.46Z"/><path class="cls-5" d="M303,176.05l-15.12,14.89L269.5,209l-3.89,3.84L250,228.23a107,107,0,0,1-75.36-30.77,15.23,15.23,0,0,1,0-21.75,15.74,15.74,0,0,1,22.07,0,75.25,75.25,0,0,0,23.72,15.82l.09,0,1.31.54a76.84,76.84,0,0,0,56.34,0c.44-.19.88-.36,1.32-.54l.08,0A75.14,75.14,0,0,0,303,176.05Z"/><path class="cls-6" d="M325.36,197.46A107,107,0,0,1,250,228.23l15.61-15.38L269.5,209l18.33-18.07L303,176.05l.33-.34.13-.12,0,0a15.75,15.75,0,0,1,21.91.16A15.23,15.23,0,0,1,325.36,197.46Z"/></svg>