<svg id="Layer_1" data-name="Layer 1" xmlns="http://www.w3.org/2000/svg" viewBox="0 0 500 500"><defs><style>.cls-1{fill:#f1f2f2;}.cls-2{fill:#d1d3d4;}.cls-3{fill:#fe9738;}.cls-4{fill:#fff;}.cls-5{fill:#ff671d;}.cls-6{fill:#e6e7e8;}.cls-7{fill:#e8edf2;}</style></defs><path class="cls-1" d="M298.13,437.5a6.93,6.93,0,0,1-6.92-6.93v-20.7l8.33-137.34c0-.09,0-.19,0-.28,0-3.24-2.51-5.82-5.16-8.56a36.67,36.67,0,0,1-2.53-2.78,59.23,59.23,0,0,1,33.05-44.69,8.38,8.38,0,0,0,4.72-7.52V108.93a4.49,4.49,0,0,0-4.5-4.5H325a4.52,4.52,0,0,1-4.51-4.52V67A4.51,4.51,0,0,1,325,62.5h51.27A4.51,4.51,0,0,1,380.74,67v32.9a4.52,4.52,0,0,1-4.51,4.52h-.17a4.49,4.49,0,0,0-4.5,4.5V208.7a8.39,8.39,0,0,0,4.73,7.53,59.25,59.25,0,0,1,32.82,43.34c-1.18.76-3.15,1.78-4.45,2.47-5.41,2.81-9.67,5-9.67,9.29,0,.16,0,.33,0,.49l15,138.06v20.69a6.93,6.93,0,0,1-6.92,6.93Z"/><path class="cls-2" d="M376.23,67h0V99.93h-.17a9,9,0,0,0-9,9V208.7a12.9,12.9,0,0,0,7.27,11.58,54.8,54.8,0,0,1,29.73,37l-1.48.78c-5.95,3.09-12.09,6.3-12.09,13.28,0,.33,0,.65.05,1l14.94,137.82v20.45a2.42,2.42,0,0,1-2.42,2.43H298.13a2.43,2.43,0,0,1-2.42-2.43V410L304,272.8c0-.18,0-.36,0-.55,0-5.06-3.42-8.58-6.43-11.69l-1-1a54.74,54.74,0,0,1,30.22-39.27,12.92,12.92,0,0,0,7.26-11.58V108.93a9,9,0,0,0-9-9l-.18,0V67h51.27m0-9H325a9,9,0,0,0-9,9v32.9a9,9,0,0,0,9,9h.17V208.7a3.84,3.84,0,0,1-2.17,3.47,64,64,0,0,0-35.68,49c-.38,2.81,7.77,8.15,7.77,11.06l-8.34,137.48v20.84A11.42,11.42,0,0,0,298.13,442H403.06a11.42,11.42,0,0,0,11.42-11.43V409.63l-15-138.3c0-3.08,14.78-7.65,14.36-10.62a64,64,0,0,0-35.62-48.54,3.84,3.84,0,0,1-2.17-3.47V108.93h.17a9,9,0,0,0,9-9V67a9,9,0,0,0-9-9Z"/><path class="cls-3" d="M413.84,260.68H287.36a63.57,63.57,0,0,0-.65,9.09V409.82H414.48v-140A65.05,65.05,0,0,0,413.84,260.68Z"/><path class="cls-3" d="M376.23,58H325a9,9,0,0,0-9,9v32.9a9,9,0,0,0,9,9h.17v53.76h50.93V108.93h.17a9,9,0,0,0,9-9V67A9,9,0,0,0,376.23,58Z"/><path class="cls-1" d="M93.41,437.5A3.39,3.39,0,0,1,90,434.11V261.54l27-68.38a4.77,4.77,0,0,1,4.46-3H215a4.77,4.77,0,0,1,4.46,3l27,68.37V434.11a3.39,3.39,0,0,1-3.39,3.39Zm58-231.36a17,17,0,1,0,0,34h33.7a17,17,0,0,0,0-34Z"/><path class="cls-2" d="M215,194.63a.28.28,0,0,1,.27.19L242,262.4V433H94.52V262.4l26.66-67.58a.3.3,0,0,1,.28-.19H215m-63.64,50h33.7a21.52,21.52,0,0,0,0-43H151.4a21.52,21.52,0,1,0,0,43m63.64-59H121.46a9.31,9.31,0,0,0-8.65,5.88L85.52,260.68V434.11A7.89,7.89,0,0,0,93.41,442H243.09a7.89,7.89,0,0,0,7.89-7.89V260.68l-27.3-69.17a9.29,9.29,0,0,0-8.64-5.88Zm-63.64,50a12.52,12.52,0,1,1,0-25h33.7a12.52,12.52,0,0,1,0,25Z"/><rect class="cls-3" x="85.52" y="260.68" width="165.47" height="149.14"/><path class="cls-4" d="M168.25,300a24.52,24.52,0,1,0,24.51,24.52A24.52,24.52,0,0,0,168.25,300Z"/><path class="cls-5" d="M251,269.77a49.79,49.79,0,0,0-.84-9.08S232.43,343.32,168.25,349s-82.73,60.79-82.73,60.79H251Z"/><path class="cls-6" d="M192.76,364.7h-49a5.8,5.8,0,0,0,0,11.59h49a5.8,5.8,0,1,0,0-11.59Z"/><path class="cls-5" d="M414.48,269.77a65.05,65.05,0,0,0-.64-9.09S400.16,343.32,350.6,349s-63.89,60.78-63.89,60.78H414.48Z"/><path class="cls-7" d="M350.6,300a24.52,24.52,0,1,0,24.51,24.52A24.52,24.52,0,0,0,350.6,300Z"/><path class="cls-6" d="M375.11,364.7h-49a5.8,5.8,0,0,0,0,11.59h49a5.8,5.8,0,0,0,0-11.59Z"/></svg>