<svg id="Layer_1" data-name="Layer 1" xmlns="http://www.w3.org/2000/svg" viewBox="0 0 500 500"><defs><style>.cls-1{fill:#fff;}.cls-1,.cls-2,.cls-9{stroke:#d1d3d4;}.cls-1,.cls-10,.cls-2,.cls-8,.cls-9{stroke-linecap:round;stroke-linejoin:round;stroke-width:9px;}.cls-2{fill:#f1f2f2;}.cls-3{fill:#ff9e18;}.cls-4{fill:#ff671d;}.cls-5{fill:#ff4438;}.cls-6{fill:#d41367;}.cls-7{fill:#a50064;}.cls-10,.cls-8,.cls-9{fill:none;}.cls-8{stroke:#ff671d;}.cls-10{stroke:#ff9e18;}</style></defs><polyline class="cls-1" points="106.9 408.16 106.9 128.88 348.51 128.88 348.51 441"/><path class="cls-2" d="M139.74,441a32.83,32.83,0,0,0,32.83-32.84H393.1A32.84,32.84,0,0,1,360.26,441Z"/><path class="cls-2" d="M139.74,441a32.84,32.84,0,0,1-32.84-32.84"/><path class="cls-3" d="M242.92,260.35a11.66,11.66,0,0,1,14.67-6.52.27.27,0,0,1,.13,0,6.35,6.35,0,0,1,.67.28l.16.06a79.59,79.59,0,0,1,25.37,17.07,11.64,11.64,0,0,1-16.37,16.56l-.09-.09-.1-.1a56,56,0,0,0-18.14-12.1A11.64,11.64,0,0,1,242.92,260.35Z"/><path class="cls-4" d="M227.7,248l-11.64,11.64-2.91,2.91L188,287.74a11.65,11.65,0,1,1-16.47-16.47A79.28,79.28,0,0,1,227.7,248Z"/><path class="cls-5" d="M283.92,191.77,227.7,248a79.28,79.28,0,0,0-56.22,23.28l56.22-56.21A79.23,79.23,0,0,0,283.92,191.77Z"/><path class="cls-6" d="M267.2,175.56l-11.27,11.27-13.68,13.68-2.9,2.9L227.7,215.06a79.25,79.25,0,0,1-56.22-23.29A11.64,11.64,0,0,1,188,175.31a56.05,56.05,0,0,0,17.69,12l.07,0,1,.41a56.55,56.55,0,0,0,42,0l1-.41.07,0A55.81,55.81,0,0,0,267.2,175.56Z"/><path class="cls-7" d="M283.92,191.77a79.23,79.23,0,0,1-56.22,23.29l11.65-11.65,2.9-2.9,13.68-13.68,11.27-11.27c.09-.08.17-.17.25-.25l.1-.09,0,0a11.64,11.64,0,0,1,16.34,16.58Z"/><line class="cls-8" x1="154.95" y1="337.71" x2="305.33" y2="337.71"/><line class="cls-9" x1="176.36" y1="363.92" x2="283.92" y2="363.92"/><rect class="cls-3" x="127.5" y="107.74" width="42.28" height="42.28"/><line class="cls-10" x1="148.64" y1="107.74" x2="148.64" y2="59"/><rect class="cls-3" x="285.63" y="107.74" width="42.28" height="42.28"/><line class="cls-10" x1="306.77" y1="107.74" x2="306.77" y2="59"/></svg>