<svg id="Layer_1" data-name="Layer 1" xmlns="http://www.w3.org/2000/svg" viewBox="0 0 500 500"><defs><style>.cls-1{fill:#f1f2f2;stroke-linecap:round;stroke-linejoin:round;}.cls-1,.cls-2{stroke:#d1d3d4;stroke-width:9px;}.cls-2{fill:#fff;stroke-miterlimit:10;}.cls-3{fill:#ff9e18;}.cls-4{fill:#ff4438;}.cls-5{fill:#ff671d;}</style></defs><polygon class="cls-1" points="250 160.63 234.02 265.94 250 450.26 408.86 397.6 408.86 213.28 250 160.63"/><polygon class="cls-2" points="91.14 213.28 91.14 397.6 250 450.26 250 160.63 91.14 213.28"/><polygon class="cls-2" points="91.14 213.28 45.43 285.9 204.28 338.56 250 265.94 91.14 213.28"/><polygon class="cls-1" points="408.86 213.28 250 265.94 295.71 338.56 454.57 285.9 408.86 213.28"/><path class="cls-3" d="M258.9,66.06l21,42.52a10.55,10.55,0,0,0,7.93,5.77l46.92,6.81a10.54,10.54,0,0,1,5.84,18l-33.95,33.1a10.52,10.52,0,0,0-3,9.32l8,46.73a10.53,10.53,0,0,1-15.28,11.11l-42-22.07a10.55,10.55,0,0,0-9.8,0l-42,22.07a10.53,10.53,0,0,1-15.28-11.11l8-46.73a10.51,10.51,0,0,0-3-9.32l-34-33.1a10.54,10.54,0,0,1,5.84-18l46.92-6.81a10.54,10.54,0,0,0,7.93-5.77l21-42.52A10.54,10.54,0,0,1,258.9,66.06Z"/><path class="cls-4" d="M373.53,51.43l6,12.19a3,3,0,0,0,2.27,1.66l13.46,2A3,3,0,0,1,397,72.39l-9.74,9.49a3,3,0,0,0-.87,2.67L388.65,98a3,3,0,0,1-4.39,3.18l-12-6.32a3,3,0,0,0-2.81,0l-12,6.32A3,3,0,0,1,353,98l2.3-13.41a3,3,0,0,0-.87-2.67l-9.74-9.49a3,3,0,0,1,1.67-5.16l13.46-2a3,3,0,0,0,2.28-1.66l6-12.19A3,3,0,0,1,373.53,51.43Z"/><path class="cls-5" d="M406.65,126.21l6,12.2a3,3,0,0,0,2.28,1.65l13.46,2a3,3,0,0,1,1.67,5.15l-9.74,9.5a3,3,0,0,0-.87,2.67l2.3,13.41a3,3,0,0,1-4.38,3.18l-12-6.33a3,3,0,0,0-2.81,0l-12,6.33a3,3,0,0,1-4.38-3.18l2.3-13.41a3,3,0,0,0-.87-2.67l-9.74-9.5a3,3,0,0,1,1.67-5.15l13.46-2a3,3,0,0,0,2.28-1.65l6-12.2A3,3,0,0,1,406.65,126.21Z"/><path class="cls-5" d="M126.47,51.43l-6,12.19a3,3,0,0,1-2.27,1.66l-13.46,2A3,3,0,0,0,103,72.39l9.74,9.49a3,3,0,0,1,.87,2.67L111.35,98a3,3,0,0,0,4.39,3.18l12-6.32a3,3,0,0,1,2.81,0l12,6.32A3,3,0,0,0,147,98l-2.3-13.41a3,3,0,0,1,.87-2.67l9.74-9.49a3,3,0,0,0-1.67-5.16l-13.46-2a3,3,0,0,1-2.28-1.66l-6-12.19A3,3,0,0,0,126.47,51.43Z"/><path class="cls-4" d="M93.35,126.21l-6,12.2a3,3,0,0,1-2.28,1.65l-13.46,2a3,3,0,0,0-1.67,5.15l9.74,9.5a3,3,0,0,1,.87,2.67l-2.3,13.41a3,3,0,0,0,4.38,3.18l12-6.33a3,3,0,0,1,2.81,0l12,6.33a3,3,0,0,0,4.38-3.18l-2.3-13.41a3,3,0,0,1,.87-2.67l9.74-9.5a3,3,0,0,0-1.67-5.15l-13.46-2a3,3,0,0,1-2.28-1.65l-6-12.2A3,3,0,0,0,93.35,126.21Z"/></svg>