<svg id="Layer_1" data-name="Layer 1" xmlns="http://www.w3.org/2000/svg" viewBox="0 0 500 500"><defs><style>.cls-1{fill:#f1f2f2;}.cls-1,.cls-2{stroke:#d1d3d4;}.cls-1,.cls-2,.cls-4{stroke-linecap:round;stroke-linejoin:round;stroke-width:9px;}.cls-2{fill:#fff;}.cls-3{fill:#ff671d;}.cls-4{fill:none;stroke:#60269e;}.cls-5{fill:#d41367;}</style></defs><polygon class="cls-1" points="408.86 213.28 250 160.63 250 265.94 408.86 213.28"/><polygon class="cls-2" points="91.14 213.28 250 160.63 250 265.94 91.14 213.28"/><polygon class="cls-1" points="250 265.94 250 450.26 408.86 397.6 408.86 213.28 250 265.94"/><path class="cls-3" d="M294.08,281.92H205.92a37.83,37.83,0,0,1-37.64-41.71l11.77-114.53a14.24,14.24,0,0,1,14.16-12.78H306.35a14.25,14.25,0,0,1,14.17,12.85L331.74,240.4A37.83,37.83,0,0,1,294.08,281.92Z"/><path class="cls-4" d="M287.69,146V108.33A37.7,37.7,0,0,0,250,70.64h0a37.7,37.7,0,0,0-37.69,37.69V146"/><polygon class="cls-2" points="91.14 213.28 91.14 397.6 250 450.26 250 265.94 91.14 213.28"/><polygon class="cls-2" points="91.14 213.28 45.43 285.9 204.28 338.56 250 265.94 91.14 213.28"/><polygon class="cls-1" points="408.86 213.28 250 265.94 295.71 338.56 454.57 285.9 408.86 213.28"/><path class="cls-5" d="M368.94,227.3c0,3.78-10.35,5.87-11.46,9.27s6,11.3,3.83,14.24-11.76-1.41-14.73.75-1.73,12.63-5.26,13.78-8.58-8.06-12.36-8.06-8.95,9.16-12.36,8.06-2.32-11.64-5.26-13.78-12.57,2.21-14.72-.75,5-10.71,3.82-14.24S289,231.08,289,227.3s10.35-5.86,11.46-9.27-6-11.29-3.82-14.23,11.75,1.4,14.72-.76,1.73-12.63,5.26-13.77,8.59,8,12.36,8,9-9.16,12.36-8,2.32,11.63,5.26,13.77,12.57-2.21,14.73.76-5,10.7-3.83,14.23S368.94,223.53,368.94,227.3Z"/></svg>