<svg id="Layer_1" data-name="Layer 1" xmlns="http://www.w3.org/2000/svg" viewBox="0 0 500 500"><defs><style>.cls-1,.cls-6{fill:#fff;}.cls-1,.cls-2{stroke:#d1d3d4;stroke-miterlimit:10;stroke-width:9px;}.cls-2{fill:#f1f2f2;}.cls-3{fill:#ff9e18;}.cls-4{fill:#d1d3d4;}.cls-5{fill:#d41367;}.cls-7{fill:#a50064;}.cls-8{fill:#ff671d;}.cls-9{fill:#ff4438;}</style></defs><rect class="cls-1" x="237.46" y="315.23" width="217.54" height="139.77" rx="10.1"/><path class="cls-2" d="M448.24,319.58,347.51,417.1a2.35,2.35,0,0,1-2.55,0L244.22,319.58a2.36,2.36,0,0,1,1.28-4.35H447A2.36,2.36,0,0,1,448.24,319.58Z"/><rect class="cls-1" x="45" y="45" width="264.34" height="365.95" rx="12.71"/><path class="cls-3" d="M59.38,402h88.38L54,308.19v88.37A5.38,5.38,0,0,0,59.38,402Z"/><rect class="cls-4" x="205.14" y="77.8" width="79.6" height="18.49" rx="9.24"/><rect class="cls-4" x="229.74" y="118.98" width="55" height="18.49" rx="9.24"/><rect class="cls-5" x="162.33" y="182.82" width="215.28" height="139.77" rx="8.42"/><rect class="cls-6" x="304.45" y="243.26" width="55" height="18.49" rx="9.24"/><rect class="cls-6" x="279.85" y="282.33" width="79.6" height="18.49" rx="9.24"/><circle class="cls-6" cx="205.7" cy="226.19" r="26.96"/><path class="cls-3" d="M441.88,68.68V240.36a52.6,52.6,0,0,1-3.37,18.52l-7.28,19.35h-11.9l-7.28-19.35a52.78,52.78,0,0,1-3.36-18.52V68.68a4,4,0,0,1,4-4h25.26A4,4,0,0,1,441.88,68.68Z"/><path class="cls-7" d="M425.28,278.23h0a4.2,4.2,0,0,1,4.2,4.2v6a0,0,0,0,1,0,0h-8.41a0,0,0,0,1,0,0v-6a4.2,4.2,0,0,1,4.2-4.2Z" transform="translate(850.56 566.63) rotate(180)"/><path class="cls-7" d="M413.32,45h23.93a0,0,0,0,1,0,0V57.72a7,7,0,0,1-7,7h-9.94a7,7,0,0,1-7-7V45A0,0,0,0,1,413.32,45Z" transform="translate(850.56 109.71) rotate(-180)"/><rect class="cls-7" x="408.69" y="87.76" width="33.19" height="8.24" transform="translate(850.56 183.76) rotate(-180)"/><path class="cls-7" d="M451.47,182.29a3.54,3.54,0,0,0,3.53-3.53V98.45a10.11,10.11,0,0,0-10.1-10.1h-3a3.53,3.53,0,1,0,0,7.06h3a3,3,0,0,1,3,3v80.31A3.54,3.54,0,0,0,451.47,182.29Z"/><path class="cls-3" d="M111.55,121.93a6.25,6.25,0,0,1,7.86-3.5l.07,0,.36.15.09,0a42.75,42.75,0,0,1,13.59,9.14,6.24,6.24,0,0,1-8.78,8.87l0,0,0-.05a30.1,30.1,0,0,0-9.72-6.48A6.24,6.24,0,0,1,111.55,121.93Z"/><path class="cls-8" d="M103.4,115.31l-6.23,6.23-1.56,1.56-13.5,13.5a6.24,6.24,0,0,1-8.82-8.82A42.43,42.43,0,0,1,103.4,115.31Z"/><path class="cls-9" d="M133.52,85.2,103.4,115.31a42.43,42.43,0,0,0-30.11,12.47L103.4,97.67A42.48,42.48,0,0,0,133.52,85.2Z"/><path class="cls-5" d="M124.56,76.51l-6,6-7.32,7.33-1.56,1.55-6.24,6.24A42.48,42.48,0,0,1,73.29,85.2a6.24,6.24,0,1,1,8.82-8.82,30.16,30.16,0,0,0,9.48,6.41h0l.53.22a30.14,30.14,0,0,0,22.51,0l.53-.22h0A29.9,29.9,0,0,0,124.56,76.51Z"/><path class="cls-7" d="M133.52,85.2A42.48,42.48,0,0,1,103.4,97.67l6.24-6.24,1.56-1.55,7.32-7.33,6-6,.13-.13.06,0v0a6.24,6.24,0,0,1,8.76,8.89Z"/></svg>