<svg id="Layer_1" data-name="Layer 1" xmlns="http://www.w3.org/2000/svg" viewBox="0 0 500 500"><defs><style>.cls-1{fill:#fff;stroke-miterlimit:10;}.cls-1,.cls-2{stroke:#d1d3d4;stroke-width:9px;}.cls-2{fill:#f1f2f2;stroke-linecap:round;stroke-linejoin:round;}.cls-3{fill:#ff9e18;}.cls-4{fill:#ff671d;}.cls-5{fill:#ff4438;}.cls-6{fill:#d41367;}.cls-7{fill:#a50064;}</style></defs><path class="cls-1" d="M379.34,104.77C355.72,86.2,305.16,74.51,303,74a7.34,7.34,0,0,0-8.79,5.52,7.47,7.47,0,0,0-.18,1.63c0,9.91-20.34,22-44.05,22S206,91.09,206,81.18a7.32,7.32,0,0,0-2.76-5.74A7.14,7.14,0,0,0,197,74c-2.14.48-52.68,12.18-76.35,30.74C96.18,124,89.22,217,88.49,227.5a7.34,7.34,0,0,0,4.14,7.11,173.84,173.84,0,0,0,54.59,15.12V404.2a7.35,7.35,0,0,0,3.91,6.47c1.19.65,30,15.55,98.87,15.55s97.68-14.9,98.87-15.55a7.35,7.35,0,0,0,3.91-6.47V249.73a173.86,173.86,0,0,0,54.58-15.12,7.35,7.35,0,0,0,4.15-7.11C410.78,217,403.82,124,379.34,104.77Z"/><path class="cls-2" d="M306.06,75.52A7.24,7.24,0,0,0,300,74a446.09,446.09,0,0,1-50,7.21A446.09,446.09,0,0,1,200,74a7.27,7.27,0,0,0-6.05,1.55,7.35,7.35,0,0,0-2.67,5.66c0,22,30.36,36.7,58.73,36.7s58.73-14.68,58.73-36.7A7.35,7.35,0,0,0,306.06,75.52Z"/><line class="cls-1" x1="352.78" y1="249.73" x2="352.78" y2="181.69"/><line class="cls-1" x1="147.71" y1="249.73" x2="147.71" y2="181.69"/><path class="cls-3" d="M262.76,239.89a9.79,9.79,0,0,1,12.31-5.47l.12,0c.19.07.37.15.56.24l.14.05a66.59,66.59,0,0,1,21.28,14.33A9.77,9.77,0,0,1,283.43,263l-.07-.08-.08-.08a47,47,0,0,0-15.22-10.15A9.78,9.78,0,0,1,262.76,239.89Z"/><path class="cls-4" d="M250,229.52l-9.76,9.77-2.44,2.44-21.15,21.15a9.77,9.77,0,0,1-13.81-13.82A66.48,66.48,0,0,1,250,229.52Z"/><path class="cls-5" d="M297.17,182.35,250,229.52a66.49,66.49,0,0,0-47.17,19.54L250,201.89A66.49,66.49,0,0,0,297.17,182.35Z"/><path class="cls-6" d="M283.14,168.75l-9.46,9.46-11.47,11.47-2.44,2.44L250,201.89a66.49,66.49,0,0,1-47.17-19.54,9.77,9.77,0,0,1,13.81-13.82,47,47,0,0,0,14.85,10.05l0,0,.83.35a47.41,47.41,0,0,0,35.26,0l.83-.35.05,0A46.93,46.93,0,0,0,283.14,168.75Z"/><path class="cls-7" d="M297.17,182.35A66.49,66.49,0,0,1,250,201.89l9.77-9.77,2.44-2.44,11.47-11.47,9.46-9.46a1.45,1.45,0,0,0,.21-.22.27.27,0,0,0,.08-.07l0,0a9.77,9.77,0,0,1,13.71,13.91Z"/></svg>