<svg id="Layer_1" data-name="Layer 1" xmlns="http://www.w3.org/2000/svg" viewBox="0 0 500 500"><defs><style>.cls-1{fill:#fff;stroke-miterlimit:10;}.cls-1,.cls-2,.cls-4{stroke:#d1d3d4;stroke-width:9px;}.cls-2{fill:#f1f2f2;}.cls-2,.cls-4{stroke-linecap:round;stroke-linejoin:round;}.cls-3{fill:#d41367;}.cls-4{fill:none;}.cls-5{fill:#ff671d;}.cls-6{fill:#ff9e18;}</style></defs><path class="cls-1" d="M79.62,419.18A12.66,12.66,0,0,1,67,406.56V192l2.65-2,1.58,2H428.77l1.58-2,2.65,2V406.56a12.66,12.66,0,0,1-12.62,12.62"/><path class="cls-2" d="M430.35,190l-1.58,2L256.31,324.52H243.69L71.23,192l-1.58-2,60.45-47,83.17-64.56,29.09-22.59a12.35,12.35,0,0,1,15.28,0l29.09,22.59L369.9,143Z"/><path class="cls-1" d="M369.9,91V237.25L256.31,324.52H243.69L130.1,237.25V91a12.66,12.66,0,0,1,12.62-12.62H357.28A12.66,12.66,0,0,1,369.9,91Z"/><path class="cls-1" d="M326.55,419.18h93.83A12.51,12.51,0,0,0,430.54,414L286,301.74l-28.33-22a12.35,12.35,0,0,0-15.28,0l-28.33,22L69.46,414a12.51,12.51,0,0,0,10.16,5.18h93.83"/><path class="cls-3" d="M305.63,418.49l11.81-11.81a39.34,39.34,0,0,0,0-55.63h0a39.33,39.33,0,0,0-55.62,0L250,362.87l-11.82-11.82a39.33,39.33,0,0,0-55.62,0h0a39.34,39.34,0,0,0,0,55.63l11.81,11.81,47.5,47.5a11.5,11.5,0,0,0,16.26,0Z"/><line class="cls-4" x1="162.04" y1="120.33" x2="337.96" y2="120.33"/><line class="cls-4" x1="162.04" y1="157.67" x2="337.96" y2="157.67"/><line class="cls-4" x1="162.04" y1="195" x2="337.96" y2="195"/><line class="cls-4" x1="162.04" y1="232.33" x2="337.96" y2="232.33"/><path class="cls-5" d="M396,318.43l5.23-5.23a17.41,17.41,0,0,0,0-24.62h0a17.41,17.41,0,0,0-24.62,0l-5.23,5.23-5.23-5.23a17.41,17.41,0,0,0-24.62,0h0a17.41,17.41,0,0,0,0,24.62l5.23,5.23,21,21a5.09,5.09,0,0,0,7.2,0Z"/><path class="cls-6" d="M153.22,318.43l5.23-5.23a17.41,17.41,0,0,0,0-24.62h0a17.41,17.41,0,0,0-24.62,0l-5.23,5.23-5.23-5.23a17.41,17.41,0,0,0-24.62,0h0a17.41,17.41,0,0,0,0,24.62l5.23,5.23,21,21a5.09,5.09,0,0,0,7.2,0Z"/></svg>