<svg id="Layer_1" data-name="Layer 1" xmlns="http://www.w3.org/2000/svg" viewBox="0 0 500 500"><defs><style>.cls-1,.cls-6{fill:#fff;}.cls-1,.cls-10,.cls-2{stroke:#d1d3d4;}.cls-1,.cls-2{stroke-miterlimit:10;}.cls-1,.cls-10,.cls-12,.cls-2,.cls-9{stroke-width:9px;}.cls-11,.cls-2{fill:#f1f2f2;}.cls-3{fill:#a50064;}.cls-4{fill:#ff9e18;}.cls-5{fill:#d41367;}.cls-7{fill:#ff671d;}.cls-8{fill:#ff4438;}.cls-10,.cls-12,.cls-9{fill:none;stroke-linecap:round;stroke-linejoin:round;}.cls-9{stroke:#fff;}.cls-12{stroke:#a50064;}</style></defs><path class="cls-1" d="M45,433.35A21.65,21.65,0,0,0,66.65,455h366.7A21.65,21.65,0,0,0,455,433.35V96.48H45Z"/><path class="cls-2" d="M433.35,45H66.65A21.65,21.65,0,0,0,45,66.65V96.48H455V66.65A21.65,21.65,0,0,0,433.35,45Z"/><circle class="cls-3" cx="78.53" cy="70.74" r="7.73"/><circle class="cls-4" cx="101.29" cy="70.74" r="7.73"/><circle class="cls-5" cx="124.05" cy="70.74" r="7.73"/><rect class="cls-6" x="221.2" y="63.01" width="208" height="15.46" rx="7.73"/><rect class="cls-4" x="70.8" y="130.61" width="86.1" height="86.1"/><rect class="cls-7" x="206.95" y="130.61" width="86.1" height="86.1"/><rect class="cls-8" x="343.1" y="130.61" width="86.1" height="86.1"/><line class="cls-9" x1="113.85" y1="159.54" x2="113.85" y2="187.79"/><line class="cls-9" x1="127.98" y1="173.66" x2="99.73" y2="173.66"/><line class="cls-9" x1="250" y1="159.54" x2="250" y2="187.79"/><line class="cls-9" x1="264.12" y1="173.66" x2="235.88" y2="173.66"/><line class="cls-9" x1="386.15" y1="159.54" x2="386.15" y2="187.79"/><line class="cls-9" x1="400.27" y1="173.66" x2="372.02" y2="173.66"/><line class="cls-10" x1="70.8" y1="239.89" x2="124.05" y2="239.89"/><line class="cls-10" x1="142.37" y1="239.89" x2="156.9" y2="239.89"/><line class="cls-10" x1="156.9" y1="266.11" x2="103.66" y2="266.11"/><line class="cls-10" x1="85.34" y1="266.11" x2="70.8" y2="266.11"/><line class="cls-10" x1="206.95" y1="239.89" x2="260.19" y2="239.89"/><line class="cls-10" x1="278.51" y1="239.89" x2="293.05" y2="239.89"/><line class="cls-10" x1="293.05" y1="266.11" x2="239.81" y2="266.11"/><line class="cls-10" x1="221.49" y1="266.11" x2="206.95" y2="266.11"/><line class="cls-10" x1="343.1" y1="239.89" x2="396.34" y2="239.89"/><line class="cls-10" x1="414.66" y1="239.89" x2="429.2" y2="239.89"/><line class="cls-10" x1="429.2" y1="266.11" x2="375.95" y2="266.11"/><line class="cls-10" x1="357.63" y1="266.11" x2="343.1" y2="266.11"/><rect class="cls-11" x="70.8" y="297.22" width="169" height="133.78" rx="4"/><rect class="cls-1" x="260.19" y="297.22" width="169" height="133.78" rx="4"/><path class="cls-3" d="M101.2,364.11a54.09,54.09,0,0,0,30.5,48.69l-25.81-70.72a53.84,53.84,0,0,0-4.69,22Z"/><path class="cls-3" d="M191.84,361.38c0-6.69-2.41-11.33-4.47-14.93-2.74-4.45-5.3-8.22-5.3-12.69,0-5,3.76-9.6,9.09-9.6l.69,0a54.08,54.08,0,0,0-81.24,9.43c4.07.08,17.4.13,17.4.13a2.24,2.24,0,0,1,.34,4.46s-2.93.34-6.19.51l19.71,58.61,11.84-35.51-8.44-23.1c-2.91-.17-5.67-.51-5.67-.51-2.92-.18-2.57-4.63.35-4.46h28.67a2.24,2.24,0,0,1,.34,4.46s-2.92.34-6.19.51l19.56,58.16,5.4-18q4.1-10.56,4.11-17.5Z"/><path class="cls-3" d="M156.26,368.84,140,416a54.18,54.18,0,0,0,33.26-.87l-.38-.74Z"/><path class="cls-3" d="M202.79,338.14a42.26,42.26,0,0,1,.37,5.58c0,5.49-1,11.65-4.12,19.38l-16.53,47.77a54.14,54.14,0,0,0,20.28-72.73Z"/><line class="cls-12" x1="301.65" y1="337.89" x2="354.89" y2="337.89"/><line class="cls-12" x1="373.21" y1="337.89" x2="387.75" y2="337.89"/><line class="cls-12" x1="301.65" y1="390.33" x2="354.89" y2="390.33"/><line class="cls-12" x1="373.21" y1="390.33" x2="387.75" y2="390.33"/><line class="cls-12" x1="387.75" y1="364.11" x2="334.5" y2="364.11"/><line class="cls-12" x1="316.18" y1="364.11" x2="301.65" y2="364.11"/></svg>