<svg width="230" height="175" viewBox="0 0 230 175" xmlns="http://www.w3.org/2000/svg" class="entries-illustration"><title>Entries Illustration</title><g fill="none" fill-rule="evenodd"><path fill="#E9E9E9" d="M202.603 132.497L94.47 114.167 112.8 6.036l108.132 18.33"/><path stroke="#E9E9E9" stroke-width="2" d="M228.836 146.147l-108.188 18-18-108.19L210.84 37.96zM115.817 135.06l108.227-17.723"/><path stroke="#E9E9E9" stroke-width="2" d="M129.053 126.842l-71.627 6.792L47.073 24.448 156.26 14.095l8.855 93.405M148.64 95.37l14.77-1.402m-30.08 2.878l10.805-1.05M54.65 104.28l68.368-6.456"/><path stroke="#E9E9E9" stroke-width="2" d="M107.567 143.55L1.214 116.76 28 10.41l45.712 11.514m26.262 89.308l14.388 3.624m-29.31-7.356l10.534 2.627M8.422 88.173L75.01 104.97"/><path fill="#E6F5FD" d="M129.787 142.567L20.33 135.652l5.056-80.032 109.457 6.915"/><path stroke="#1E2836" stroke-width="2" stroke-linecap="round" stroke-linejoin="round" d="M127.928 171.992L18.47 165.077 25.387 55.62l109.457 6.915z"/><path fill="#E6F5FD" d="M133.355 136.933l-109.54 5.415-3.96-80.094 109.54-5.415"/><path fill="#A5DEF2" d="M103.604 62.008l.66-3.79 8.19-.404-1.102 4.477"/><path stroke="#1E2836" stroke-width="2" stroke-linecap="round" stroke-linejoin="round" d="M134.81 166.38l-109.54 5.416-5.416-109.54 109.542-5.416z"/><path fill="#E6F5FD" d="M132.555 143.78L22.94 140.12l2.677-80.147 109.614 3.66"/><path d="M104.022 62.514l-.01.057-7.684 45.34a6.262 6.262 0 0 0 5.13 7.222l31.898 4.677 1.674-50.152c0-3.56-2.84-6.47-6.398-6.555l-24.61-.59z" fill="#A5DEF2"/><path fill="#FEFEFE" d="M131.53 173.336l-109.614-3.66.994-29.777 109.614 3.66"/><path stroke="#1E2836" stroke-width="2" stroke-linecap="round" stroke-linejoin="round" d="M131.57 173.246l-109.613-3.66 3.66-109.614 109.614 3.66zm-14.264-29.976l14.83.495m-30.204-.983l10.85.337"/><path d="M105.843 102.53c0 14.78-11.99 26.764-26.78 26.764-14.788 0-26.778-11.983-26.778-26.765 0-14.783 11.99-26.766 26.78-26.766 14.79 0 26.778 11.983 26.778 26.765" fill="#A5DEF2"/><path d="M22.948 140.12l68.634 2.316" stroke="#1E2836" stroke-width="2" stroke-linecap="round" stroke-linejoin="round"/><path d="M55.07 105.524c0-14.782 11.99-26.765 26.78-26.765 7.004 0 13.378 2.69 18.15 7.09-4.907-6.145-12.46-10.086-20.936-10.086-14.79 0-26.78 11.983-26.78 26.764 0 7.78 3.326 14.784 8.63 19.674a26.632 26.632 0 0 1-5.843-16.678" fill="#FEFEFE"/><path d="M64.843 79.845a26.913 26.913 0 0 1 10.2-3.793 26.673 26.673 0 0 1 10.98.624c14.278 3.844 22.736 18.534 18.892 32.812-3.844 14.276-18.535 22.734-32.812 18.89-14.277-3.844-22.735-18.535-18.89-32.812a26.637 26.637 0 0 1 5.82-10.81m4.793 1.622a22.223 22.223 0 0 1 8.363-5.9m6.161-1.502c2.037-.2 4.1-.12 6.124.244" stroke="#1E2836" stroke-width="2" stroke-linecap="round" stroke-linejoin="round"/><path fill="#E6F5FD" d="M213.108 98.393l-108.133-18.33L118.377 1 226.51 19.33"/><path fill="#FEFEFE" d="M208.166 127.55l-108.133-18.328 4.98-29.375 108.132 18.33"/><path stroke="#1E2836" stroke-width="2" stroke-linecap="round" stroke-linejoin="round" d="M208.18 127.462l-108.132-18.33L118.378 1 226.51 19.33zm-16.928-32.774l21.443 3.635M173.74 91.72l7.89 1.337m-76.654-12.993l62.95 10.67"/><path fill="#FDEA39" d="M155.625 26.906l30.044 5.308 11.088 16.54-32.53 23.05-24.87-33.42"/><path fill="#FEFEFE" d="M145.162 39.432l12.146-8.97 29.658 5.24-.21-3.297-30.044-5.308-16.266 11.478 24.868 33.42-3.318-10.047"/><path stroke="#1E2836" stroke-width="2" stroke-linecap="round" stroke-linejoin="round" d="M155.625 26.906l30.044 5.308 11.088 16.54-32.53 23.05-24.87-33.42zM139.36 38.384l57.398 10.368"/><path d="M164.244 70.406L156.57 41.54s24.38 4.485 24.06 4.363c-.318-.12-16.386 24.503-16.386 24.503z" stroke="#1E2836" stroke-width="2" stroke-linecap="round" stroke-linejoin="round"/><path d="M169.68 30.964l-13.11 10.574s14.963-11.822 14.52-11.9c-.44-.078 9.54 16.265 9.54 16.265m-33.313-3.588l8.724 11.668m-6.061-18.108l3.772-2.643" stroke="#1E2836" stroke-width="2" stroke-linecap="round" stroke-linejoin="round"/></g></svg>