<svg width="230" height="172" viewBox="0 0 230 172" xmlns="http://www.w3.org/2000/svg" class="money-back-illustration"><title>Money Back Illustration</title><g fill="none" fill-rule="evenodd"><path d="M228.71 46.58c0 14.75-11.96 26.708-26.71 26.708S175.294 61.33 175.294 46.58c0-14.75 11.958-26.708 26.708-26.708 14.75 0 26.71 11.958 26.71 26.708z" stroke="#E9E9E9" stroke-width="2"/><path d="M228.71 46.58c0 14.75-11.96 26.708-26.71 26.708S175.294 61.33 175.294 46.58c0-14.75 11.958-26.708 26.708-26.708 14.75 0 26.71 11.958 26.71 26.708z" stroke="#E9E9E9" stroke-width="2"/><path d="M200.108 61.008v-.717c0-.827-.627-1.502-1.448-1.607-1.343-.17-2.624-.508-3.665-.948a1.614 1.614 0 0 1-.914-1.937l.17-.586c.262-.915 1.26-1.423 2.14-1.06 1.317.544 2.885.94 4.547.94 2.485 0 4.18-1.224 4.18-3.118 0-1.775-1.38-2.92-4.3-3.984-4.14-1.5-6.823-3.393-6.823-7.06 0-3.045 1.905-5.454 5.175-6.43a1.625 1.625 0 0 0 1.175-1.55v-.976a1.617 1.617 0 0 1 3.235 0v.556c0 .828.63 1.504 1.45 1.607 1.01.126 1.866.342 2.603.6.8.28 1.224 1.157.985 1.97l-.147.502c-.26.884-1.208 1.39-2.074 1.073a10.902 10.902 0 0 0-3.803-.668c-2.76 0-3.747 1.42-3.747 2.762 0 1.617 1.42 2.524 4.773 3.865 4.417 1.657 6.39 3.787 6.39 7.298 0 3.034-1.906 5.745-5.483 6.76a1.617 1.617 0 0 0-1.185 1.55v1.158a1.617 1.617 0 0 1-3.234 0" fill="#E9E9E9"/><path d="M43.25 128.914c0 11.667-9.46 21.125-21.126 21.125S1 140.58 1 128.913c0-11.667 9.458-21.125 21.124-21.125 11.667 0 21.125 9.457 21.125 21.124z" stroke="#E9E9E9" stroke-width="2"/><path d="M43.25 128.914c0 11.667-9.46 21.125-21.126 21.125S1 140.58 1 128.913c0-11.667 9.458-21.125 21.124-21.125 11.667 0 21.125 9.457 21.125 21.124z" stroke="#E9E9E9" stroke-width="2"/><path d="M20.627 140.326v-.567c0-.656-.496-1.19-1.145-1.273-1.063-.135-2.076-.402-2.9-.75-.594-.25-.9-.91-.722-1.532l.133-.464c.208-.722.997-1.124 1.693-.837 1.042.43 2.282.743 3.596.743 1.966 0 3.308-.968 3.308-2.465 0-1.403-1.092-2.308-3.402-3.15-3.276-1.186-5.397-2.684-5.397-5.585 0-2.408 1.508-4.314 4.094-5.085.547-.163.93-.656.93-1.226v-.772a1.28 1.28 0 1 1 2.56 0v.44c0 .654.496 1.19 1.146 1.27.8.1 1.476.27 2.06.475.632.222.967.916.778 1.56l-.116.396c-.206.7-.957 1.1-1.64.85a8.617 8.617 0 0 0-3.01-.53c-2.183 0-2.963 1.124-2.963 2.185 0 1.28 1.122 1.996 3.774 3.057 3.494 1.31 5.055 2.996 5.055 5.773 0 2.4-1.508 4.543-4.337 5.346a1.278 1.278 0 0 0-.938 1.226v.916a1.28 1.28 0 1 1-2.558 0" fill="#E9E9E9"/><path d="M26.852 38.517c0 5.81-4.71 10.517-10.517 10.517-5.81 0-10.518-4.708-10.518-10.517 0-5.81 4.71-10.517 10.518-10.517 5.808 0 10.517 4.708 10.517 10.517z" stroke="#E9E9E9" stroke-width="2"/><path d="M26.852 38.517c0 5.81-4.71 10.517-10.517 10.517-5.81 0-10.518-4.708-10.518-10.517 0-5.81 4.71-10.517 10.518-10.517 5.808 0 10.517 4.708 10.517 10.517z" stroke="#E9E9E9" stroke-width="2"/><path d="M15.59 44.2v-.283a.643.643 0 0 0-.57-.633 5.592 5.592 0 0 1-1.444-.374.634.634 0 0 1-.36-.763l.066-.23a.633.633 0 0 1 .843-.418c.52.213 1.136.37 1.79.37.98 0 1.647-.483 1.647-1.228 0-.7-.544-1.15-1.693-1.57-1.633-.59-2.69-1.335-2.69-2.78 0-1.2.752-2.147 2.04-2.532a.64.64 0 0 0 .462-.61v-.384a.637.637 0 0 1 1.273-.001v.22c0 .324.248.59.57.63.4.05.736.136 1.026.238a.63.63 0 0 1 .388.776l-.058.197a.63.63 0 0 1-.817.423 4.29 4.29 0 0 0-1.497-.263c-1.088 0-1.476.56-1.476 1.087 0 .637.56.995 1.88 1.523 1.74.652 2.516 1.49 2.516 2.874 0 1.195-.75 2.263-2.16 2.662a.638.638 0 0 0-.465.61v.457a.637.637 0 0 1-1.274-.001" fill="#E9E9E9"/><path d="M86.35 10.707a3.456 3.456 0 0 0 4.34 2.14c31.907-10.418 68.424.77 88.38 30.33 22.27 32.99 15.668 78.083-15.15 103.272-34.622 28.295-85.6 21.442-111.67-14.176C27.996 99.138 34.004 52.992 65.1 27.034l-3.714 24.002a3.54 3.54 0 0 0 2.956 4.04l.225.034c1.93.3 3.74-1.025 4.04-2.956l5.046-32.612a3.54 3.54 0 0 0-2.957-4.04l-32.61-5.046a3.539 3.539 0 1 0-1.084 6.996l24.163 3.74C26.47 49.633 19.875 100.735 47.17 137.175c27.13 36.22 78.737 44.56 115.875 18.698 39.08-27.212 47.91-81.084 19.942-119.294C160.83 6.31 122.33-4.894 88.513 6.18c-1.875.613-2.854 2.68-2.162 4.527" fill="#A5DEF4"/><path d="M86.35 10.707a3.456 3.456 0 0 0 4.34 2.14c31.907-10.418 68.424.77 88.38 30.33 22.27 32.99 15.668 78.083-15.15 103.272-34.622 28.295-85.6 21.442-111.67-14.176C27.996 99.138 34.004 52.992 65.1 27.034l-3.714 24.002a3.54 3.54 0 0 0 2.956 4.04l.225.034c1.93.3 3.74-1.025 4.04-2.956l5.046-32.612a3.54 3.54 0 0 0-2.957-4.04l-32.61-5.046a3.539 3.539 0 1 0-1.084 6.996l24.163 3.74C26.47 49.633 19.875 100.735 47.17 137.175c27.13 36.22 78.737 44.56 115.875 18.698 39.08-27.212 47.91-81.084 19.942-119.294C160.83 6.31 122.33-4.894 88.513 6.18c-1.875.613-2.854 2.68-2.162 4.527z" stroke="#1E2836" stroke-width="2" stroke-linecap="round" stroke-linejoin="round"/><path d="M146.805 78.656c-.175-4.15.158-11.54-1.6-15.39-1.533-3.354-5.776-5.802-8.706-7.826-4.182-2.887-11.738-7.466-11.738-7.466l-.085-6.89-18.492-.103-.202 6.42-17.97 13.29c-3.304 2.595-5.254 6.715-5.254 11.096v63.626s.076 8.746 32.94 8.352c0 0 28.323-.493 31.726-8.382.025-19.845.216-36.908-.62-56.726" fill="#FEFEFE"/><path d="M74.372 56.7v3.96l-11.838 8.7a9.255 9.255 0 0 0-3.774 7.458v42.764s.056 5.878 23.663 5.613c0 0 18.692-.554 19.704-5.613M88.967 50.41c0 .86-3.69 1.56-8.24 1.56-4.55 0-8.24-.7-8.24-1.56 0-.86 3.69-1.56 8.24-1.56 4.55 0 8.24.7 8.24 1.56z" stroke="#E9E9E9" stroke-width="2"/><path d="M72.42 50.627V53.8c0 1.218.865 2.26 2.06 2.49 2.783.53 7.92 1.202 12.505.117 1.13-.268 1.916-1.298 1.916-2.46v-3.32m-1.951 6.505v3.91l10.403 6.62a9.26 9.26 0 0 1 4.288 7.707l.488 44.21M74.372 60.658s3.525 1.236 8.05.81M58.76 119.582s.163-2.71 4.98-3.7c0-.002 5.49-1.383 9.862-1.707M148.84 56.7v3.96l-11.837 8.7a9.255 9.255 0 0 0-3.774 7.458v42.764s.055 5.878 23.662 5.613c0 0 18.692-.554 19.704-5.613M163.436 50.41c0 .86-3.69 1.56-8.24 1.56-4.55 0-8.24-.7-8.24-1.56 0-.86 3.69-1.56 8.24-1.56 4.55 0 8.24.7 8.24 1.56z" stroke="#E9E9E9" stroke-width="2"/><path d="M146.89 50.627V53.8c0 1.218.864 2.26 2.06 2.49 2.782.53 7.92 1.202 12.504.117 1.13-.268 1.916-1.298 1.916-2.46v-3.32m-1.952 6.505v3.91l10.404 6.62a9.26 9.26 0 0 1 4.288 7.707l.487 44.21s0-5.492-21.684-5.637m-6.073-53.284s3.526 1.236 8.052.81m-23.662 58.114s.162-2.71 4.98-3.7" stroke="#E9E9E9" stroke-width="2"/><path d="M140.467 78.333c-.175-4.15-.254-8.554-2.013-12.403-1.533-3.354-4.31-5.247-7.24-7.27-4.18-2.888-8.974-6.033-11.127-10.657-.218.044-.45.068-.7.068h-2.147c-3.393.522-6.816.613-10.172 0h-3.47l-15.65 12.297c-3.304 2.595-5.255 6.715-5.255 11.096v63.626s.078 8.745 32.94 8.35c0 0 19.198-.607 25.506-5.55.024-19.844.164-39.74-.673-59.557" fill="#E6F5FD"/><path d="M135.987 56.248c5.46 4.89 8.228 10.703 6.185 12.984-2.044 2.282-7.344-2.025-12.803-6.914-5.46-4.89-12.08-12.884-10.037-15.166 2.043-2.28 11.195 4.206 16.654 9.096" fill="#FEFEFE"/><path d="M86.95 61.043l10.403 6.62a9.254 9.254 0 0 1 4.288 7.706l.488 44.21m43.214-56.349l-8.34 6.13a9.254 9.254 0 0 0-3.775 7.457v42.764s0 3.823 14.083 5.322" stroke="#C8E9F1" stroke-width="2"/><path d="M147.423 135.06c0 4.755-13.957 8.21-32.17 8.21s-32.455-4.042-32.455-8.798 14.035-7.83 32.247-7.83c18.213 0 32.378 3.66 32.378 8.417M103.97 39.868l-1.858-4.1v-3.67s7.745-6.044 25.02-.324l.22 2.816-1.077 5.278-7.13 1.727-3.932-.024-7.27-.65-3.974-1.052z" fill="#A5DEF2"/><path d="M82.798 125.112c7.158-.306 19.512 0 19.33-5.53" stroke="#C8E9F1" stroke-width="2"/><path d="M105.98 41.163v5.913L88.303 60.067a13.823 13.823 0 0 0-5.635 11.136v63.855s.084 8.775 35.334 8.38c0 0 27.91-.827 29.42-8.38m-19.65-103.284c0 1.286-5.508 2.328-12.304 2.328-6.795 0-12.303-1.042-12.303-2.328 0-1.286 5.508-2.328 12.303-2.328 6.796 0 12.304 1.042 12.304 2.328z" stroke="#1E2836" stroke-width="2" stroke-linecap="round" stroke-linejoin="round"/><path d="M103.066 32.098v4.738a3.783 3.783 0 0 0 3.076 3.717c4.154.793 11.825 1.796 18.67.175 1.688-.4 2.86-1.937 2.86-3.672v-4.958m-2.912 9.712v5.84l15.535 9.884a13.815 13.815 0 0 1 6.4 11.51l.728 66.015s0-8.204-32.377-8.42m-9.066-79.563s5.264 1.846 12.022 1.21M82.668 135.06s.243-4.048 7.437-5.528" stroke="#1E2836" stroke-width="2" stroke-linecap="round" stroke-linejoin="round"/><path d="M117.71 116.025c0 .218-.217.436-.435.436h-3.93c-.435 0-.435-.38-.435-3.654-5.73-1.037-8.73-4.802-8.73-11.24 0-.273.164-.436.437-.49l6.93-.383c.327 0 .49.11.6.6.38 1.91 1.254 3.056 2.508 3.056.71 0 1.2-.492 1.2-1.2 0-1.42-1.308-2.62-5.618-5.73-3.11-2.237-5.13-5.456-5.13-9.385 0-4.146 2.73-8.512 7.803-9.548v-3c0-.273.164-.492.382-.492h3.983c.436 0 .436.327.436 3.546 5.02 1.04 8.076 5.186 8.076 9.986 0 .327-.218.546-.6.6l-7.475.383c-.38 0-1.362-2.075-1.8-2.075-.49 0-.71.436-.71.82 0 1.308 1.802 2.672 5.457 5.455 3.384 2.564 5.184 5.62 5.184 9.002 0 5.457-3.054 9.166-8.13 10.148v3.165z" fill="#FDEA39"/><path d="M116.174 113.714c-5.73-1.037-8.73-4.802-8.73-11.24 0-.273.164-.436.437-.49l4.444-.246c-.037-.146-.077-.29-.108-.445-.11-.49-.272-.6-.6-.6l-6.93.382c-.272.054-.436.218-.436.49 0 6.44 3 10.203 8.73 11.24 0 3.274 0 3.656.436 3.656h2.79c-.032-.54-.032-1.395-.032-2.746m-5.869-16.295c4.31 3.11 5.62 4.31 5.62 5.73 0 .164-.032.315-.082.453.466 1.05 1.17 1.654 2.075 1.654.71 0 1.2-.49 1.2-1.2 0-1.42-1.31-2.62-5.62-5.73-3.11-2.236-5.13-5.455-5.13-9.384 0-4.146 2.73-8.51 7.803-9.548v-3c0-.273.164-.49.383-.49h1.196c-.042-.787-.147-.91-.408-.91h-3.983c-.217 0-.38.22-.38.492v3c-5.074 1.036-7.803 5.402-7.803 9.548 0 3.93 2.02 7.148 5.13 9.385" fill="#FEFEFE"/><path d="M108.663 80.534c1.163-.97 2.606-1.697 4.317-2.046v-3c0-.274.163-.492.382-.492h3.983c.436 0 .436.327.436 3.546 5.02 1.037 8.076 5.184 8.076 9.985 0 .327-.218.545-.6.6l-7.475.382c-.38 0-1.362-2.075-1.8-2.075-.49 0-.71.437-.71.82 0 1.308 1.802 2.672 5.457 5.455 3.383 2.564 5.183 5.62 5.183 9.002m-3.02 7.67c-1.323 1.232-3.05 2.08-5.11 2.48v3.163c0 .218-.216.437-.436.437h-3.927c-.438 0-.438-.382-.438-3.656-5.73-1.037-8.73-4.802-8.73-11.24 0-.272.165-.436.436-.49l6.93-.382c.328 0 .492.11.6.6.382 1.91 1.255 3.055 2.51 3.055.71 0 1.2-.492 1.2-1.2 0-1.42-1.31-2.62-5.62-5.73-3.11-2.236-5.13-5.456-5.13-9.385a9.89 9.89 0 0 1 .785-3.834" stroke="#1E2836" stroke-width="2" stroke-linecap="round" stroke-linejoin="round"/></g></svg>