<svg width="215" height="166" viewBox="0 0 215 166" xmlns="http://www.w3.org/2000/svg" xmlns:xlink="http://www.w3.org/1999/xlink" class="satisfaction-illustration"><title>Satisfaction Guaranteed Illustration</title><defs><path id="a" d="M.403 159H123.79V.906H.403V159z"/></defs><g fill="none" fill-rule="evenodd"><path d="M23.496 52.048c-7.166-3.397-12.12-10.697-12.12-19.155 0-11.7 9.485-21.186 21.186-21.186 4.565 0 8.793 1.443 12.25 3.9m161.644 95.231c0 23.134-18.754 41.888-41.888 41.888-23.134 0-41.887-18.754-41.887-41.888 0-23.134 18.754-41.888 41.888-41.888 23.134 0 41.888 18.754 41.888 41.888z" stroke="#E9E9E9" stroke-width="2"/><path d="M8.562 63.683l3.403 5.877m1.299-4.676l-6 3.474" stroke="#1E2836" stroke-linecap="round" stroke-linejoin="round"/><path d="M6.5 40.338a3 3 0 1 1-6 0 3 3 0 0 1 6 0" fill="#FDEA39"/><path d="M6.5 40.338a3 3 0 1 1-6 0 3 3 0 0 1 6 0z" stroke="#1F2736" stroke-linecap="round" stroke-linejoin="round"/><path d="M214.026 93.81a3 3 0 1 1-6 0 3 3 0 0 1 6 0" fill="#FDEA39"/><path d="M214.026 93.81a3 3 0 1 1-6 0 3 3 0 0 1 6 0z" stroke="#1F2736" stroke-linecap="round" stroke-linejoin="round"/><path d="M174 130.465l3.58 5.877m1.21-4.766l-6 3.654" stroke="#1E2836" stroke-linecap="round" stroke-linejoin="round"/><path d="M21.297 133.465a3 3 0 1 1-6 0 3 3 0 0 1 6 0" fill="#FDEA39"/><path d="M21.297 133.465a3 3 0 1 1-6 0 3 3 0 0 1 6 0z" stroke="#1F2736" stroke-linecap="round" stroke-linejoin="round"/><path d="M43.896 138.645a3 3 0 1 1-6 0 3 3 0 0 1 6 0" fill="#FDEA39"/><path d="M43.896 138.645a3 3 0 1 1-6 0 3 3 0 0 1 6 0z" stroke="#1F2736" stroke-linecap="round" stroke-linejoin="round"/><path d="M29.562 117.226v5.877m3-2.938h-6M198.014 15.36v5.877m3-2.937h-6m11.786 8.717v5.877m3-2.939h-6" stroke="#1E2836" stroke-linecap="round" stroke-linejoin="round"/><path d="M68.456 6.586C41.16 9.278 22.592 33.53 22.783 61c0 49.508 87.98 103.467 87.98 103.467L175.79 99.44" stroke="#E9E9E9" stroke-width="2"/><g transform="translate(52 7.093)"><mask id="b" fill="#fff"><use xlink:href="#a"/></mask><path d="M.77 112.317l32.376-32.12s-7.69-13.46-.07-31.64c4.637-11.064-11.903-20.396-21.24-24.384-9.335-3.99-14.74-9.14-9.2-16.798C7.714.355 30.787-6.09 59.367 17.39c28.58 23.476 64.424 76.583 64.424 76.583L58.764 159C37.294 145.338 17.88 129.85.77 112.317" fill="#E6F5FD" mask="url(#b)"/></g><path d="M85.865 50.03c.05 1.37-.19 2.773-.79 4.208-6.7 15.985-1.566 28.316-.228 31.062-1.373-5.67-2.06-14.564 2.324-25.03 1.53-3.644.75-7.1-1.305-10.24" fill="#FEFEFE"/><path d="M142.476 75.262c-.11-.004 20.323 21.39-11.743 58.324 9.692 2.422 14.586-3.87 14.586-3.87l31.98-31.82-27.55-28.663-7.274 6.03z" fill="#A5DEF2"/><path d="M106.18 161.694l26.81-27.687s5.435.49 8.63-1.275c3.192-1.764-31.15 31.736-31.15 31.736l-4.29-2.774z" fill="#A5DEF2"/><path d="M56.733 19.087c5.076-7.02 28.15-13.463 56.73 10.014 23.365 19.195 51.58 58.186 61.1 71.778l1.226-1.225s-35.845-53.107-64.425-76.584C82.785-.41 59.712 6.035 54.635 13.053c-3.17 4.384-2.752 7.945-.067 10.938.2-1.514.89-3.142 2.165-4.905M87.242 91.91s-1.23-2.16-2.22-5.91l-32.254 31.997c1.34 1.373 2.72 2.71 4.087 4.06L87.242 91.91z" fill="#FEFEFE"/><path d="M52.77 117.784l32.376-32.12s-7.69-13.46-.07-31.639c4.637-11.064-11.903-20.396-21.24-24.384-9.335-3.99-14.74-9.139-9.2-16.798 5.077-7.02 28.15-13.463 56.73 10.014 28.58 23.477 64.424 76.585 64.424 76.585l-65.026 65.028c-21.47-13.662-40.883-29.15-57.995-46.683z" stroke="#1E2836" stroke-width="2" stroke-linecap="round" stroke-linejoin="round"/><path d="M180.81 25.318l-39.676 40.494a8.013 8.013 0 0 1-11.333.116L124 60.242a8.013 8.013 0 0 1-.116-11.333l39.675-40.495c3.892-3.973 10.27-4.038 14.242-.146l2.863 2.806c3.974 3.892 4.04 10.27.146 14.242m13.35 21.208l-33.987 34.688c-4.394 4.484-11.59 4.558-16.075.164l-1.013-.992c-4.484-4.394-4.558-11.59-.164-16.075l33.987-34.69c3.79-3.868 9.998-3.93 13.867-.14l3.243 3.177c3.87 3.79 3.932 10 .142 13.867m7.887 26.482L174.67 101.04c-2.062 2.11-8.902 1.776-11.01-.29l-7.012-8.208c-.782-4.414.484-8.068 2.548-10.174l27.07-27.7c3.31-3.377 8.896-2.824 11.478 1.137l5.21 7.99a7.396 7.396 0 0 1-.907 9.21m-49.68-53.445l-29.74 30.354a6.125 6.125 0 0 1-8.49.252l-8.83-8.003a6.128 6.128 0 0 1-.27-8.823l29.08-29.754a9.344 9.344 0 0 1 11.45-1.506l4.892 2.9c5.21 3.092 6.148 10.252 1.907 14.58" fill="#E6F5FD"/><path d="M127.44 63.295a7.909 7.909 0 0 1-.117-11.266l39.84-40.255c3.545-3.58 9.134-3.957 13.12-1.114l-2.248-2.18c-3.99-3.87-10.393-3.805-14.302.145L125.55 47.22c-3.11 3.143-3.958 9-1.542 12.924l3.43 3.15zm18.902 3.541l34.773-35.492c3.51-3.583 9.043-3.964 12.997-1.13l-2.304-2.258c-3.958-3.878-10.31-3.813-14.19.145l-34.772 35.493c-4.495 4.588-4.42 11.952.168 16.447l1.037 1.016c.51.5 1.058.932 1.628 1.318-3.745-4.53-3.54-11.247.664-15.538m13.122 29.948a5.34 5.34 0 0 1-.077-7.55l30.39-31.02c2.29-2.334 5.665-2.788 8.384-1.538l-.322-.494c-2.583-3.96-8.168-4.514-11.478-1.136l-28.692 29.32c-2.063 2.106-1.106 9.807 1 11.87l.795.548zM108.55 36.887l29.08-29.753a9.347 9.347 0 0 1 11.452-1.506l4.572 2.71a9.311 9.311 0 0 0-3.098-2.98l-4.89-2.9a9.346 9.346 0 0 0-11.453 1.506l-27.344 28.022c-2.43 2.485-3.21 5.69-1.095 10.185l2.51 2.98a6.126 6.126 0 0 1 .27-8.263" fill="#FEFEFE"/><path d="M180.815 25.546L142.91 64.233c-4.075 4.16-10.75 4.228-14.91.152l-2.19-2.144c-4.16-4.074-4.227-10.75-.15-14.91l37.903-38.687c3.892-3.973 10.27-4.038 14.242-.146l2.864 2.807c3.972 3.892 4.038 10.27.145 14.242zm13.351 21.206l-34.25 34.957c-4.248 4.335-11.206 4.406-15.542.158l-1.55-1.52c-4.337-4.248-4.408-11.206-.16-15.542l34.25-34.957c3.79-3.87 9.998-3.933 13.867-.143l3.244 3.178c3.87 3.79 3.932 10 .142 13.867zm4.217 30.236l-21.853 22.35c-3.938 4.028-10.396 4.097-14.42.155l-2.685-2.63c-4.02-3.94-4.086-10.392-.147-14.413l25.7-26.232c3.975-4.056 10.682-3.392 13.783 1.365l1.333 2.043a13.94 13.94 0 0 1-1.71 17.362zm-46.009-57.2l-27.686 28.258a9.18 9.18 0 0 1-12.72.377l-4.31-3.906c-3.856-3.495-4.037-9.493-.4-13.215l26.865-27.488a9.343 9.343 0 0 1 11.45-1.506l4.892 2.9c5.213 3.092 6.15 10.25 1.91 14.58zm-21.149 75.505c3.474-9.46 3.82-18.875 2.425-27.636M85.145 85.665s4.982 9.702 12.193 14.815m49.982 27.43l-2.56 2.56a11.997 11.997 0 0 1-16.495.45l-8.507-7.63M61.242 16.914s1.05-.274 3.67 2.085c2.623 2.36-1.835 6.308-1.835 6.308m52.326 8.279c1.05.326 6.95 4 7.933 6.752m10.882 9.745s7.343 3.65 8.262 6.94m7.92 8.712s6.37 2.23 9.276 9.07m7.414 12.242c.743-.065 6.478 3.343 7.02 7.407M63.49 118.19l10.076-10.058m3.304-3.328l2.642-2.638" stroke="#1E2836" stroke-width="2" stroke-linecap="round" stroke-linejoin="round"/></g></svg>