<svg id="Layer_1" data-name="Layer 1" xmlns="http://www.w3.org/2000/svg" viewBox="0 0 500 500"><defs><style>.cls-1,.cls-6{fill:none;}.cls-1,.cls-4,.cls-5,.cls-6{stroke:#d1d3d4;stroke-linecap:round;stroke-linejoin:round;stroke-width:9px;}.cls-2{fill:#d41367;}.cls-3{fill:#ff9e18;}.cls-4{fill:#f1f2f2;}.cls-5{fill:#fff;}.cls-6{stroke-dasharray:12.2 12.2;}</style></defs><path class="cls-1" d="M84.15,362.1a190.4,190.4,0,0,1-25.54-95.57C58.61,160.83,144.3,75.14,250,75.14s191.39,85.69,191.39,191.39a190.58,190.58,0,0,1-23.1,91.23"/><path class="cls-2" d="M192.47,310.34a21.88,21.88,0,0,0-14.06,18.75,355.14,355.14,0,0,0-.49,54.73H322.08a357.7,357.7,0,0,0-.49-54.73,21.88,21.88,0,0,0-14.06-18.75C301,308,295.75,303.39,295.75,296c0-6.35,6.56-10.56,12.66-13.11a22,22,0,0,0,13.15-16.14c.42-2.2.8-4.41,1.16-6.63-1.91-14.44-9.68-20.84-9.14-29.42a21.41,21.41,0,0,0-2.79-12.11c-1.16-2,11.23-16.2,9.91-18.12C304.2,176.6,277,161.83,277,161.83V118H223v43.88S195.8,176.6,179.3,200.44c-1.33,1.92,5.87,11.27,4.7,13.3a21.52,21.52,0,0,0-2.78,12.11c.53,8.59,11.18,19.12-3.95,34.24.37,2.22.75,4.43,1.17,6.63a21.92,21.92,0,0,0,13.15,16.14c6.1,2.55,12.65,6.76,12.65,13.11C204.24,303.39,199,308,192.47,310.34Z"/><path class="cls-3" d="M324.45,206.37c-1.17-2-2.43-4-3.75-5.93H179.3q-2,2.88-3.75,5.93a21.48,21.48,0,0,0-2.79,12.1c.54,8.59,1.82,25.1,4.51,41.62H322.72c2.7-16.52,4-33,4.52-41.62A21.56,21.56,0,0,0,324.45,206.37Z"/><path class="cls-3" d="M282.5,131.55V117.94a11.75,11.75,0,0,0-11.75-11.74H229.24a11.74,11.74,0,0,0-11.74,11.74v13.61a5.24,5.24,0,0,0,0,10.48h65a5.24,5.24,0,1,0,0-10.48Z"/><polygon class="cls-4" points="180.36 424.86 27.25 424.86 70.7 382.98 27.25 341.1 180.36 341.1 180.36 424.86"/><polygon class="cls-4" points="319.64 424.86 472.75 424.86 429.3 382.98 472.75 341.1 319.64 341.1 319.64 424.86"/><rect class="cls-5" x="110.72" y="320.22" width="278.56" height="83.76"/><line class="cls-1" x1="152.5" y1="362.1" x2="158.5" y2="362.1"/><line class="cls-6" x1="170.7" y1="362.1" x2="335.4" y2="362.1"/><line class="cls-1" x1="341.5" y1="362.1" x2="347.5" y2="362.1"/></svg>