<svg id="Layer_1" data-name="Layer 1" xmlns="http://www.w3.org/2000/svg" viewBox="0 0 500 500"><defs><style>.cls-1{fill:#f1f2f2;}.cls-1,.cls-2,.cls-3,.cls-4{stroke:#d1d3d4;stroke-width:9px;}.cls-1,.cls-3,.cls-4{stroke-linecap:round;stroke-linejoin:round;}.cls-2{fill:#fff;stroke-miterlimit:10;}.cls-3,.cls-4{fill:none;}.cls-4{stroke-dasharray:12.39 12.39;}.cls-5{fill:#ff9e18;}.cls-6{fill:#a50064;}.cls-7{fill:#d41367;}.cls-8{fill:#ff671d;}.cls-9{fill:#ff4438;}</style></defs><path class="cls-1" d="M119.89,53.18h0a0,0,0,0,1,0,0V406.38a0,0,0,0,1,0,0H72.46a0,0,0,0,1,0,0V100.61A47.43,47.43,0,0,1,119.89,53.18Z"/><path class="cls-1" d="M112.86,366H411.63a0,0,0,0,1,0,0v80.81a0,0,0,0,1,0,0H112.86a40.4,40.4,0,0,1-40.4-40.4v0A40.4,40.4,0,0,1,112.86,366Z"/><path class="cls-2" d="M119.89,53.18H413a14.53,14.53,0,0,1,14.53,14.53V351.48A14.53,14.53,0,0,1,413,366H119.89a0,0,0,0,1,0,0V53.18A0,0,0,0,1,119.89,53.18Z"/><line class="cls-3" x1="113.01" y1="397.18" x2="119.01" y2="397.18"/><line class="cls-4" x1="131.39" y1="397.18" x2="372.92" y2="397.18"/><line class="cls-3" x1="379.11" y1="397.18" x2="385.11" y2="397.18"/><line class="cls-3" x1="113.01" y1="422.14" x2="119.01" y2="422.14"/><line class="cls-4" x1="131.39" y1="422.14" x2="372.92" y2="422.14"/><line class="cls-3" x1="379.11" y1="422.14" x2="385.11" y2="422.14"/><path class="cls-5" d="M273.72,103.3a110.73,110.73,0,0,0,0,221.46,18.42,18.42,0,0,0,18.45-18.45,18,18,0,0,0-4.8-12.37,18.49,18.49,0,0,1,13.85-30.7h21.71a61.54,61.54,0,0,0,61.52-61.51C384.45,147.35,334.87,103.3,273.72,103.3Z"/><circle class="cls-6" cx="206.05" cy="195.58" r="18.46"/><circle class="cls-7" cx="242.96" cy="146.36" r="18.46"/><circle class="cls-8" cx="304.48" cy="146.36" r="18.46"/><circle class="cls-9" cx="341.39" cy="195.58" r="18.46"/></svg>