<svg id="Layer_1" data-name="Layer 1" xmlns="http://www.w3.org/2000/svg" viewBox="0 0 500 500"><defs><style>.cls-1{fill:#fff;}.cls-1,.cls-3{stroke:#d1d3d4;stroke-linejoin:round;}.cls-1,.cls-3,.cls-6{stroke-linecap:round;stroke-width:9px;}.cls-2{fill:#d41367;}.cls-3{fill:#f1f2f2;}.cls-4{fill:#ff9e18;}.cls-5{fill:#a50064;}.cls-6{fill:none;stroke:#ff9e18;stroke-miterlimit:10;}</style></defs><polygon class="cls-1" points="64.1 142.15 250 80.53 435.9 142.15 250 203.78 64.1 142.15"/><polygon class="cls-2" points="123.84 163.1 301.46 103.87 367.87 125.88 190.26 185.12 123.84 163.1"/><polygon class="cls-3" points="250 203.78 250 419.47 435.9 357.85 435.9 142.15 250 203.78"/><path class="cls-4" d="M277.19,305.88v43.88l60.16-19.95V287.19a1.88,1.88,0,0,0-2.47-1.79l-56.4,18.7A1.87,1.87,0,0,0,277.19,305.88Z"/><polygon class="cls-1" points="64.1 142.15 64.1 357.85 250 419.47 250 203.78 64.1 142.15"/><polygon class="cls-5" points="123.84 167.83 123.84 322.22 190.26 344.23 190.26 189.85 123.84 167.83"/><line class="cls-6" x1="283.21" y1="371.13" x2="331.34" y2="355.18"/></svg>