<svg id="Layer_1" data-name="Layer 1" xmlns="http://www.w3.org/2000/svg" viewBox="0 0 500 500"><defs><style>.cls-1,.cls-5{fill:#fff;}.cls-1,.cls-2,.cls-7{stroke:#d1d3d4;stroke-linecap:round;stroke-linejoin:round;stroke-width:9px;}.cls-2{fill:#f1f2f2;}.cls-3{fill:#ff9e18;}.cls-4{fill:#ff4438;}.cls-6{fill:#a50064;}.cls-7{fill:none;}.cls-8{fill:#d41367;}</style></defs><rect class="cls-1" x="198.1" y="57.4" width="223.72" height="321.22"/><rect class="cls-1" x="78.18" y="121.38" width="223.72" height="321.22"/><polygon class="cls-2" points="301.9 121.38 198.1 57.4 198.1 121.38 301.9 121.38"/><rect class="cls-3" x="109.58" y="150.02" width="160.92" height="141.14" rx="4.03"/><path class="cls-4" d="M113.61,291.15H266.46a4,4,0,0,0,4-4V261.66l-.64-.82-34.39-34.39a9.49,9.49,0,0,0-13.41,0l-5.3,5.3a9.48,9.48,0,0,1-13.4,0L169.21,197.6a9.48,9.48,0,0,0-13.4,0l-46.23,46.23v43.29A4,4,0,0,0,113.61,291.15Z"/><circle class="cls-5" cx="221.06" cy="188.27" r="16.38"/><rect class="cls-6" x="112.28" y="312.31" width="46.07" height="46.07" rx="5.6"/><line class="cls-7" x1="178.33" y1="322.87" x2="204.68" y2="322.87"/><line class="cls-7" x1="221.06" y1="322.87" x2="270.5" y2="322.87"/><line class="cls-7" x1="178.33" y1="350.07" x2="270.5" y2="350.07"/><line class="cls-7" x1="114.11" y1="378.62" x2="270.5" y2="378.62"/><line class="cls-7" x1="114.11" y1="407.17" x2="270.5" y2="407.17"/><rect class="cls-8" x="317.65" y="78.69" width="83.77" height="49.93" rx="5.27"/><line class="cls-7" x1="322.65" y1="146.93" x2="346.5" y2="146.93"/><line class="cls-7" x1="362.59" y1="146.93" x2="396.99" y2="146.93"/><line class="cls-7" x1="322.65" y1="171.89" x2="396.99" y2="171.89"/><line class="cls-7" x1="322.65" y1="196.85" x2="396.99" y2="196.85"/><rect class="cls-3" x="317.65" y="222.91" width="83.77" height="49.93" rx="5.27"/><line class="cls-7" x1="322.65" y1="291.15" x2="346.5" y2="291.15"/><line class="cls-7" x1="362.59" y1="291.15" x2="396.99" y2="291.15"/><line class="cls-7" x1="322.65" y1="316.11" x2="396.99" y2="316.11"/><line class="cls-7" x1="322.65" y1="341.07" x2="396.99" y2="341.07"/></svg>