<svg id="Layer_1" data-name="Layer 1" xmlns="http://www.w3.org/2000/svg" viewBox="0 0 500 500"><defs><style>.cls-1,.cls-5{fill:#fff;}.cls-1{stroke:#d1d3d4;stroke-miterlimit:10;stroke-width:9px;}.cls-2{fill:#d1d3d4;}.cls-3{fill:#ff671d;}.cls-4{fill:#ff4438;}.cls-6{fill:#bcbec0;}.cls-7{fill:#ff9e18;}.cls-8{fill:#d41367;}.cls-9{fill:#a50064;}</style></defs><rect class="cls-1" x="82.88" y="45" width="372.12" height="237.06" rx="17.64"/><rect class="cls-2" x="107.48" y="69.6" width="96.64" height="96.64" rx="5.13"/><rect class="cls-2" x="232.25" y="83.27" width="202.6" height="18.49" rx="9.24"/><rect class="cls-2" x="232.25" y="122.35" width="145.2" height="18.49" rx="9.24"/><rect class="cls-3" x="232.25" y="189.69" width="180.84" height="18.49" rx="9.24"/><rect class="cls-3" x="232.25" y="228.76" width="129.61" height="18.49" rx="9.24"/><rect class="cls-4" x="107.48" y="189.69" width="96.64" height="18.49" rx="9.24"/><rect class="cls-4" x="122.86" y="228.76" width="65.88" height="18.49" rx="9.24"/><circle class="cls-5" cx="155.8" cy="110.23" r="26.96"/><path class="cls-6" d="M143.37,135.65h24.87A26.75,26.75,0,0,1,195,162.4v3.84a0,0,0,0,1,0,0H116.62a0,0,0,0,1,0,0V162.4A26.75,26.75,0,0,1,143.37,135.65Z"/><path class="cls-5" d="M146.34,115.08h19.52a0,0,0,0,1,0,0v19.41a9.76,9.76,0,0,1-9.76,9.76h0a9.76,9.76,0,0,1-9.76-9.76V115.08A0,0,0,0,1,146.34,115.08Z"/><rect class="cls-1" x="45" y="217.94" width="372.12" height="237.06" rx="17.64"/><rect class="cls-5" x="69.6" y="242.54" width="96.64" height="96.64" rx="5.13"/><rect class="cls-2" x="194.36" y="401.7" width="129.61" height="18.49" rx="9.24"/><rect class="cls-2" x="84.98" y="401.7" width="65.88" height="18.49" rx="9.24"/><rect class="cls-7" x="63.94" y="131.47" width="372.12" height="237.06" rx="17.64"/><rect class="cls-5" x="88.54" y="156.07" width="96.64" height="96.64" rx="5.13"/><rect class="cls-5" x="213.3" y="169.74" width="202.6" height="18.49" rx="9.24"/><rect class="cls-5" x="213.3" y="208.82" width="145.2" height="18.49" rx="9.24"/><rect class="cls-5" x="213.3" y="276.16" width="180.84" height="18.49" rx="9.24"/><rect class="cls-5" x="213.3" y="315.23" width="129.61" height="18.49" rx="9.24"/><rect class="cls-5" x="88.54" y="276.16" width="96.64" height="18.49" rx="9.24"/><rect class="cls-5" x="103.92" y="315.23" width="65.88" height="18.49" rx="9.24"/><path class="cls-7" d="M146.59,222.82a7.47,7.47,0,0,1,9.39-4.17l.08,0,.43.18.1,0a50.76,50.76,0,0,1,16.23,10.93,7.44,7.44,0,0,1-10.47,10.58l-.06,0-.06-.06a35.94,35.94,0,0,0-11.6-7.75A7.45,7.45,0,0,1,146.59,222.82Z"/><path class="cls-3" d="M136.86,214.92l-7.45,7.44-1.86,1.86-16.12,16.13a7.45,7.45,0,0,1-10.54-10.54A50.73,50.73,0,0,1,136.86,214.92Z"/><path class="cls-4" d="M172.83,179l-36,36a50.69,50.69,0,0,0-36,14.89l36-36A50.69,50.69,0,0,0,172.83,179Z"/><path class="cls-8" d="M162.13,168.58l-7.21,7.21-8.75,8.75-1.86,1.86-7.45,7.45a50.65,50.65,0,0,1-36-14.9,7.45,7.45,0,0,1,10.53-10.53,35.77,35.77,0,0,0,11.32,7.66l0,0,.63.26a36.17,36.17,0,0,0,26.88,0l.63-.26,0,0A35.72,35.72,0,0,0,162.13,168.58Z"/><path class="cls-9" d="M172.83,179a50.69,50.69,0,0,1-36,14.9l7.45-7.45,1.86-1.86,8.75-8.75,7.21-7.21a1.21,1.21,0,0,0,.16-.16l.06-.06h0A7.45,7.45,0,0,1,172.83,179Z"/></svg>