<svg id="Layer_1" data-name="Layer 1" xmlns="http://www.w3.org/2000/svg" viewBox="0 0 500 500"><defs><style>.cls-1{fill:#ff4438;}.cls-2{fill:#ff671d;}.cls-3{fill:#ff9e18;}.cls-4{fill:#101820;}.cls-5,.cls-9{fill:#fff;}.cls-6,.cls-8{fill:none;}.cls-6{stroke:#101820;stroke-linecap:round;stroke-linejoin:round;}.cls-6,.cls-9{stroke-width:9px;}.cls-7{fill:#d41367;}.cls-8,.cls-9{stroke:#d1d3d4;stroke-miterlimit:10;}.cls-8{stroke-width:14px;}</style></defs><path class="cls-1" d="M297.88,188.71,284,147.08a3.59,3.59,0,0,0-6.43-.8l-9.15,14.22a3.59,3.59,0,0,1-6.41-.77l-8.07-23.2a3.6,3.6,0,0,0-6.79,0l-8.07,23.2a3.6,3.6,0,0,1-6.42.77l-9.14-14.22a3.59,3.59,0,0,0-6.43.8l-13.91,41.63a3.59,3.59,0,0,0,3.41,4.73h87.91A3.59,3.59,0,0,0,297.88,188.71Z"/><circle class="cls-2" cx="327.2" cy="209.67" r="39.78"/><circle class="cls-2" cx="172.8" cy="209.67" r="39.78"/><ellipse class="cls-3" cx="250" cy="274.21" rx="99.8" ry="91.66"/><circle class="cls-2" cx="250" cy="320.05" r="45.83"/><circle class="cls-4" cx="208.92" cy="260.48" r="11.02"/><circle class="cls-5" cx="214.43" cy="254.97" r="5.51"/><circle class="cls-4" cx="291.08" cy="260.48" r="11.02"/><circle class="cls-5" cx="296.59" cy="254.97" r="5.51"/><line class="cls-6" x1="250" y1="298.03" x2="250" y2="315.58"/><ellipse class="cls-7" cx="250" cy="282.39" rx="22.05" ry="15.65"/><rect class="cls-8" x="75" y="75" width="350" height="350"/><rect class="cls-9" x="45" y="45" width="60" height="60" rx="5.37"/><rect class="cls-9" x="220" y="45" width="60" height="60" rx="5.37"/><rect class="cls-9" x="395" y="45" width="60" height="60" rx="5.37"/><rect class="cls-9" x="45" y="220" width="60" height="60" rx="5.37"/><rect class="cls-9" x="395" y="220" width="60" height="60" rx="5.37"/><rect class="cls-9" x="45" y="395" width="60" height="60" rx="5.37"/><rect class="cls-9" x="220" y="395" width="60" height="60" rx="5.37"/><rect class="cls-9" x="395" y="395" width="60" height="60" rx="5.37"/></svg>