<svg id="Layer_1" data-name="Layer 1" xmlns="http://www.w3.org/2000/svg" viewBox="0 0 500 500"><defs><style>.cls-1{fill:#f1f2f2;}.cls-1,.cls-3,.cls-4{stroke:#d1d3d4;stroke-width:9px;}.cls-1,.cls-3{stroke-linecap:round;stroke-linejoin:round;}.cls-2,.cls-3,.cls-4{fill:#fff;}.cls-4{stroke-miterlimit:10;}.cls-5{fill:#ff9e18;}.cls-6{fill:#ff671d;}.cls-7{fill:#ff4438;}.cls-8{fill:#d41367;}.cls-9{fill:#a50064;}.cls-10{fill:#fe9738;}</style></defs><path class="cls-1" d="M274.13,162.66c-17.52-13.78-55-22.45-56.62-22.81a5.42,5.42,0,0,0-6.65,5.31c0,7.35-15.09,16.34-32.68,16.34s-32.68-9-32.68-16.34a5.46,5.46,0,0,0-2.05-4.26,5.3,5.3,0,0,0-4.61-1.09c-1.59.36-39.08,9-56.64,22.81-18.14,14.31-23.3,83.29-23.85,91.1A5.45,5.45,0,0,0,61.42,259a129,129,0,0,0,40.51,11.22V384.8a5.43,5.43,0,0,0,2.89,4.81c.89.48,22.27,11.53,73.36,11.53s72.47-11.05,73.35-11.53a5.46,5.46,0,0,0,2.9-4.81V270.21A129.46,129.46,0,0,0,294.92,259a5.44,5.44,0,0,0,3.08-5.27C297.46,245.91,292.29,176.93,274.13,162.66Z"/><line class="cls-1" x1="254.43" y1="270.21" x2="254.43" y2="219.73"/><line class="cls-1" x1="102.29" y1="270.21" x2="102.29" y2="219.73"/><path class="cls-2" d="M187.65,262.91a7.25,7.25,0,0,1,9.13-4.06.13.13,0,0,1,.08,0l.42.17.1,0a49.6,49.6,0,0,1,15.79,10.63A7.25,7.25,0,0,1,203,280l-.06-.06,0-.06a35,35,0,0,0-11.3-7.53A7.25,7.25,0,0,1,187.65,262.91Z"/><path class="cls-2" d="M178.17,255.22l-7.24,7.24-1.81,1.81L153.43,280a7.25,7.25,0,0,1-10.25-10.25A49.29,49.29,0,0,1,178.17,255.22Z"/><path class="cls-2" d="M213.17,220.22l-35,35a49.31,49.31,0,0,0-35,14.49l35-35A49.33,49.33,0,0,0,213.17,220.22Z"/><path class="cls-2" d="M202.77,210.13l-7,7-8.52,8.52-1.81,1.8-7.24,7.25a49.35,49.35,0,0,1-35-14.49A7.25,7.25,0,0,1,153.43,210a34.83,34.83,0,0,0,11,7.45.05.05,0,0,1,0,0l.61.25a35.1,35.1,0,0,0,26.17,0l.61-.25,0,0A35,35,0,0,0,202.77,210.13Z"/><path class="cls-2" d="M213.17,220.22a49.33,49.33,0,0,1-35,14.49l7.24-7.25,1.81-1.8,8.52-8.52,7-7,.15-.16.06-.06h0a7.24,7.24,0,0,1,10.17,10.32Z"/><path class="cls-3" d="M157.78,91a20.4,20.4,0,1,1,20.4,20.39"/><polyline class="cls-3" points="178.18 111.36 178.18 131.75 136.59 140.96"/><line class="cls-3" x1="178.18" y1="131.75" x2="219.77" y2="140.96"/><path class="cls-4" d="M417.78,162.66c-17.53-13.78-55-22.45-56.62-22.81a5.46,5.46,0,0,0-6.66,5.31c0,7.35-15.08,16.34-32.68,16.34s-32.68-9-32.68-16.34a5.42,5.42,0,0,0-2-4.26,5.3,5.3,0,0,0-4.61-1.09c-1.59.36-39.09,9-56.65,22.81-18.13,14.31-23.3,83.29-23.84,91.1a5.45,5.45,0,0,0,3.07,5.27,129,129,0,0,0,40.5,11.22V384.8a5.46,5.46,0,0,0,2.9,4.81c.88.48,22.27,11.53,73.35,11.53s72.48-11.05,73.36-11.53a5.43,5.43,0,0,0,2.89-4.81V270.21A129.39,129.39,0,0,0,438.56,259a5.46,5.46,0,0,0,3.09-5.27C441.1,245.91,435.94,176.93,417.78,162.66Z"/><line class="cls-4" x1="398.07" y1="270.21" x2="398.07" y2="219.73"/><line class="cls-4" x1="245.94" y1="270.21" x2="245.94" y2="219.73"/><path class="cls-5" d="M331.29,262.91a7.26,7.26,0,0,1,9.14-4.06l.08,0,.42.17.1,0a49.71,49.71,0,0,1,15.79,10.63A7.25,7.25,0,0,1,346.63,280l-.06-.06-.06-.06a35,35,0,0,0-11.29-7.53A7.25,7.25,0,0,1,331.29,262.91Z"/><path class="cls-6" d="M321.82,255.22l-7.24,7.24-1.82,1.81L297.07,280a7.24,7.24,0,0,1-10.24-10.25A49.29,49.29,0,0,1,321.82,255.22Z"/><path class="cls-7" d="M356.82,220.22l-35,35a49.29,49.29,0,0,0-35,14.49l35-35A49.35,49.35,0,0,0,356.82,220.22Z"/><path class="cls-8" d="M346.41,210.13l-7,7-8.51,8.52-1.81,1.8-7.25,7.25a49.33,49.33,0,0,1-35-14.49A7.24,7.24,0,1,1,297.07,210a35,35,0,0,0,11,7.45l0,0,.61.25a35.1,35.1,0,0,0,26.17,0l.61-.25,0,0A34.89,34.89,0,0,0,346.41,210.13Z"/><path class="cls-9" d="M356.82,220.22a49.35,49.35,0,0,1-35,14.49l7.25-7.25,1.81-1.8,8.51-8.52,7-7,.16-.16.06-.06h0a7.24,7.24,0,0,1,10.17,10.32Z"/><path class="cls-3" d="M301.43,91a20.4,20.4,0,1,1,20.39,20.39"/><polyline class="cls-3" points="321.82 111.36 321.82 131.75 280.23 140.96"/><line class="cls-3" x1="321.82" y1="131.75" x2="363.41" y2="140.96"/><rect class="cls-10" x="152.81" y="308.98" width="194.37" height="40.15" rx="20.07"/><rect class="cls-6" x="152.81" y="349.13" width="194.37" height="40.15" rx="20.07"/><rect class="cls-7" x="152.81" y="389.28" width="194.37" height="40.15" rx="20.07"/></svg>