<svg id="Layer_1" data-name="Layer 1" xmlns="http://www.w3.org/2000/svg" viewBox="0 0 500 500"><defs><style>.cls-1{fill:#f1f2f2;}.cls-1,.cls-2{stroke:#d1d3d4;stroke-linecap:round;stroke-linejoin:round;stroke-width:9px;}.cls-2{fill:#fff;}.cls-3{fill:#d41367;}.cls-4{fill:#a50064;}.cls-5{fill:#ff671d;}.cls-6{fill:#ff9e18;}</style></defs><polygon class="cls-1" points="408.86 213.28 250 160.63 250 265.94 408.86 213.28"/><polygon class="cls-2" points="91.14 213.28 250 160.63 250 265.94 91.14 213.28"/><rect class="cls-3" x="185.82" y="80.53" width="25.8" height="34.4"/><polygon class="cls-4" points="181.52 71.93 177.22 84.83 246.01 84.83 246.01 67.63 181.52 71.93"/><polygon class="cls-4" points="220.21 110.63 177.22 110.63 172.92 145.03 224.51 145.03 220.21 110.63"/><path class="cls-3" d="M203,136.43h-8.6A51.6,51.6,0,0,0,142.82,188L159,309.55a8.59,8.59,0,0,0,8.52,7.46h62.33a8.61,8.61,0,0,0,8.53-7.46L254.61,188A51.59,51.59,0,0,0,203,136.43Z"/><rect class="cls-5" x="172.92" y="175.12" width="51.59" height="25.8"/><rect class="cls-6" x="249.69" y="186.17" width="94.59" height="25.8"/><path class="cls-5" d="M331.38,173.27c-26.77,0-21.5-12.9-21.5-12.9-32.51,0-33.59,25.8-60.19,25.8h94.59S343.21,173.27,331.38,173.27Z"/><rect class="cls-5" x="236.79" y="203.37" width="120.39" height="60.19" rx="8.05"/><circle class="cls-6" cx="296.98" cy="233.46" r="12.9"/><polygon class="cls-1" points="250 265.94 250 450.26 408.86 397.6 408.86 213.28 250 265.94"/><polygon class="cls-2" points="91.14 213.28 91.14 397.6 250 450.26 250 265.94 91.14 213.28"/><polygon class="cls-2" points="91.14 213.28 45.43 285.9 204.28 338.56 250 265.94 91.14 213.28"/><polygon class="cls-1" points="408.86 213.28 250 265.94 295.71 338.56 454.57 285.9 408.86 213.28"/></svg>