<svg id="Layer_1" data-name="Layer 1" xmlns="http://www.w3.org/2000/svg" viewBox="0 0 500 500"><defs><style>.cls-1{fill:#f1f2f2;stroke-linecap:round;stroke-linejoin:round;}.cls-1,.cls-2{stroke:#d1d3d4;stroke-width:9px;}.cls-2{fill:#fff;stroke-miterlimit:10;}.cls-3{fill:#ff9e18;}.cls-4{fill:#ff671d;}.cls-5{fill:#ff4438;}.cls-6{fill:#d41367;}.cls-7{fill:#a50064;}</style></defs><path class="cls-1" d="M348.27,116.73a93.3,93.3,0,1,0,93.3,93.3A93.3,93.3,0,0,0,348.27,116.73Zm0,140.62A47.33,47.33,0,1,1,395.59,210,47.32,47.32,0,0,1,348.27,257.35Z"/><path class="cls-2" d="M68.37,99.84H315.54a9.93,9.93,0,0,1,9.93,9.93V316.07a84.09,84.09,0,0,1-84.09,84.09H142.52a84.09,84.09,0,0,1-84.09-84.09V109.78A9.93,9.93,0,0,1,68.37,99.84Z"/><path class="cls-3" d="M213,272.61a16.11,16.11,0,0,1,20.28-9,.45.45,0,0,1,.18.07c.32.11.62.24.93.38l.23.09a110.18,110.18,0,0,1,35.07,23.6A16.09,16.09,0,0,1,247,310.62l-.12-.12-.14-.13a77.45,77.45,0,0,0-25.07-16.73A16.1,16.1,0,0,1,213,272.61Z"/><path class="cls-4" d="M191.94,255.53l-16.08,16.08-4,4L137,310.48a16.09,16.09,0,0,1-22.76-22.76A109.53,109.53,0,0,1,191.94,255.53Z"/><path class="cls-5" d="M269.67,177.81,192,255.53a109.53,109.53,0,0,0-77.71,32.19L192,210A109.55,109.55,0,0,0,269.67,177.81Z"/><path class="cls-6" d="M246.55,155.41,231,171l-18.91,18.91-4,4L192,210a109.53,109.53,0,0,1-77.71-32.19A16.09,16.09,0,0,1,137,155.05a77.19,77.19,0,0,0,24.45,16.55l.1,0,1.35.57a78.15,78.15,0,0,0,58.1,0l1.36-.57.09,0A77.29,77.29,0,0,0,246.55,155.41Z"/><path class="cls-7" d="M269.67,177.81A109.55,109.55,0,0,1,192,210l16.1-16.09,4-4L231,171l15.58-15.57c.13-.12.24-.24.35-.36l.13-.12,0,0a16.09,16.09,0,0,1,22.6,22.92Z"/></svg>