<svg id="Layer_1" data-name="Layer 1" xmlns="http://www.w3.org/2000/svg" viewBox="0 0 500 500"><defs><style>.cls-1{fill:#f1f2f2;}.cls-1,.cls-2,.cls-3{stroke:#d1d3d4;}.cls-1,.cls-2,.cls-3,.cls-4{stroke-linecap:round;stroke-linejoin:round;stroke-width:9px;}.cls-2{fill:#fff;}.cls-3,.cls-4{fill:none;}.cls-4{stroke:#fff;}.cls-5{fill:#ff671d;}.cls-6{fill:#a50064;}.cls-7{fill:#ff9e18;}.cls-8{fill:#d41367;}</style></defs><rect class="cls-1" x="110.71" y="49.88" width="278.58" height="400.25" rx="25.23"/><rect class="cls-2" x="82.67" y="117.92" width="334.67" height="238.58" rx="5.04" transform="translate(487.21 -12.79) rotate(90)"/><path class="cls-2" d="M364.06,69.88H135.94a5.23,5.23,0,0,0-5.23,5.22v41.71H369.29V75.1A5.23,5.23,0,0,0,364.06,69.88Z"/><line class="cls-3" x1="151.14" y1="92.88" x2="203.64" y2="92.88"/><line class="cls-3" x1="301.44" y1="93.81" x2="315.83" y2="93.81"/><line class="cls-3" x1="334.46" y1="93.81" x2="348.86" y2="93.81"/><line class="cls-4" x1="234.49" y1="425.79" x2="265.51" y2="425.79"/><path class="cls-2" d="M178.36,153h0a0,0,0,0,1,0,0V382.28a0,0,0,0,1,0,0H152.25a0,0,0,0,1,0,0V179.13A26.12,26.12,0,0,1,178.36,153Z"/><path class="cls-2" d="M174.49,360H339a0,0,0,0,1,0,0v44.49a0,0,0,0,1,0,0H174.49a22.25,22.25,0,0,1-22.25-22.25v0A22.25,22.25,0,0,1,174.49,360Z"/><path class="cls-2" d="M178.36,153H339.75a8,8,0,0,1,8,8V352a8,8,0,0,1-8,8H178.36a0,0,0,0,1,0,0V153A0,0,0,0,1,178.36,153Z"/><rect class="cls-5" x="190.18" y="164.02" width="145.76" height="63.6"/><rect class="cls-6" x="190.18" y="306.53" width="145.76" height="42.24"/><rect class="cls-7" x="190.18" y="235.85" width="68.81" height="63.6"/><rect class="cls-8" x="267.13" y="235.85" width="68.81" height="63.6"/></svg>