<svg id="Layer_1" data-name="Layer 1" xmlns="http://www.w3.org/2000/svg" viewBox="0 0 500 500"><defs><style>.cls-1{fill:#f1f2f2;stroke-miterlimit:10;}.cls-1,.cls-2{stroke:#d1d3d4;stroke-width:9px;}.cls-2{fill:#fff;stroke-linecap:round;stroke-linejoin:round;}.cls-3{fill:#60269e;}.cls-4{fill:#ff9e18;}.cls-5{fill:#ff671d;}.cls-6{fill:#ff4438;}.cls-7{fill:#d41367;}.cls-8{fill:#a50064;}</style></defs><path class="cls-1" d="M79.62,402.42A12.66,12.66,0,0,1,67,389.8v-204a10.52,10.52,0,0,1,10.51-10.51h345A10.52,10.52,0,0,1,433,185.76v204a12.66,12.66,0,0,1-12.62,12.62"/><path class="cls-2" d="M326.55,402.42h93.83a12.5,12.5,0,0,0,10.16-5.17L286,285l-28.33-22a12.35,12.35,0,0,0-15.28,0L214,285,69.46,397.25a12.5,12.5,0,0,0,10.16,5.17H326.55Z"/><path class="cls-2" d="M173.45,175.25H79.62a12.47,12.47,0,0,0-10.16,5.17L214,292.68l28.33,22a12.33,12.33,0,0,0,15.27,0l28.33-22L430.53,180.42a12.47,12.47,0,0,0-10.15-5.17H173.45Z"/><circle class="cls-3" cx="250" cy="173.23" r="75.65"/><path class="cls-4" d="M258.68,189.67a6.66,6.66,0,0,1,8.37-3.72l.08,0,.38.16.09,0a45.33,45.33,0,0,1,14.48,9.74,6.64,6.64,0,0,1-9.35,9.44l-.05-.05-.05-.05a32,32,0,0,0-10.35-6.91A6.65,6.65,0,0,1,258.68,189.67Z"/><path class="cls-5" d="M250,182.62l-6.64,6.64-1.66,1.66L227.32,205.3a6.64,6.64,0,0,1-9.4-9.39A45.22,45.22,0,0,1,250,182.62Z"/><path class="cls-6" d="M282.08,150.54,250,182.62a45.22,45.22,0,0,0-32.08,13.29L250,163.83A45.22,45.22,0,0,0,282.08,150.54Z"/><path class="cls-7" d="M272.54,141.29l-6.44,6.43-7.8,7.81-1.66,1.66L250,163.83a45.22,45.22,0,0,1-32.08-13.29,6.64,6.64,0,0,1,9.4-9.39A31.9,31.9,0,0,0,237.41,148l0,0,.56.23a32.27,32.27,0,0,0,24,0l.56-.23,0,0A32.06,32.06,0,0,0,272.54,141.29Z"/><path class="cls-8" d="M282.08,150.54A45.22,45.22,0,0,1,250,163.83l6.64-6.64,1.66-1.66,7.8-7.81,6.44-6.43.14-.14.05-.05,0,0a6.64,6.64,0,0,1,9.33,9.46Z"/></svg>