<svg id="Layer_1" data-name="Layer 1" xmlns="http://www.w3.org/2000/svg" viewBox="0 0 500 500"><defs><style>.cls-1{fill:#d41367;}.cls-2{fill:#ff671d;}.cls-3{fill:#fff;}.cls-4,.cls-5{fill:none;}.cls-4{stroke:#fff;}.cls-4,.cls-5,.cls-6{stroke-linecap:round;stroke-linejoin:round;stroke-width:9px;}.cls-5,.cls-6{stroke:#d1d3d4;}.cls-6{fill:#f1f2f2;}</style></defs><path class="cls-1" d="M202.18,401.26h95.64a14.33,14.33,0,0,1,14.33,14.33v41.55a0,0,0,0,1,0,0H187.85a0,0,0,0,1,0,0V415.59A14.33,14.33,0,0,1,202.18,401.26Z"/><path class="cls-2" d="M279.79,401.26l55.9-67.11a10,10,0,0,0,1.18-10.94l-78.05-150.3a9.93,9.93,0,0,0-17.64,0l-78.05,150.3a10,10,0,0,0,1.18,10.94l55.9,67.11Z"/><circle class="cls-3" cx="250" cy="326.82" r="29.52"/><line class="cls-4" x1="250" y1="297.3" x2="250" y2="214.24"/><line class="cls-5" x1="81.31" y1="80.4" x2="418.69" y2="80.4"/><path class="cls-5" d="M418.69,254.94v-5.85A168.68,168.68,0,0,0,250,80.4h0A168.68,168.68,0,0,0,81.31,249.09v5.85"/><rect class="cls-6" x="222.76" y="53.16" width="54.47" height="54.47" rx="6.98"/><rect class="cls-6" x="54.07" y="241.4" width="54.47" height="54.47" rx="6.98"/><rect class="cls-6" x="391.45" y="241.4" width="54.47" height="54.47" rx="6.98"/><circle class="cls-6" cx="418.69" cy="80.4" r="27.24"/><circle class="cls-6" cx="81.31" cy="80.4" r="27.24"/></svg>