<svg id="Layer_1" data-name="Layer 1" xmlns="http://www.w3.org/2000/svg" viewBox="0 0 500 500"><defs><style>.cls-1,.cls-8{fill:#fff;}.cls-1{stroke:#d1d3d4;stroke-miterlimit:10;stroke-width:9px;}.cls-2{fill:#d1d3d4;}.cls-3{fill:#ff9e18;}.cls-4{fill:#ff671d;}.cls-5{fill:#ff4438;}.cls-6{fill:#d41367;}.cls-7{fill:#a50064;}.cls-9{fill:#101820;}</style></defs><rect class="cls-1" x="39.84" y="43.23" width="229.29" height="365.95" rx="11.84"/><rect class="cls-2" x="73.15" y="86.23" width="162.68" height="18.49" rx="9.24"/><rect class="cls-2" x="73.15" y="347.69" width="162.68" height="18.49" rx="9.24"/><path class="cls-3" d="M170.81,257.11a12.51,12.51,0,0,1,15.73-7,.32.32,0,0,1,.15.06c.24.08.47.18.72.29l.17.07a85.36,85.36,0,0,1,27.21,18.32,12.48,12.48,0,0,1-17.56,17.75l-.1-.09-.1-.11a60.13,60.13,0,0,0-19.46-13A12.49,12.49,0,0,1,170.81,257.11Z"/><path class="cls-4" d="M154.48,243.86,142,256.34l-3.12,3.12-27,27a12.49,12.49,0,0,1-17.66-17.66A85,85,0,0,1,154.48,243.86Z"/><path class="cls-5" d="M214.79,183.56l-60.3,60.3a85,85,0,0,0-60.3,25l60.3-60.31A85,85,0,0,0,214.79,183.56Z"/><path class="cls-6" d="M196.86,166.17l-12.1,12.09-14.67,14.67L167,196l-12.49,12.49a85,85,0,0,1-60.3-25,12.49,12.49,0,0,1,17.66-17.66,60.14,60.14,0,0,0,19,12.84l.07,0,1,.44a60.57,60.57,0,0,0,45.08,0l1.05-.44s0,0,.08,0A60.14,60.14,0,0,0,196.86,166.17Z"/><path class="cls-7" d="M214.79,183.56a85,85,0,0,1-60.3,25L167,196l3.11-3.11,14.67-14.67,12.1-12.09.27-.27.1-.1,0,0a12.49,12.49,0,0,1,17.53,17.79Z"/><path class="cls-3" d="M305.1,272.48a87,87,0,0,0-72.57,38.95,8.31,8.31,0,0,0,0,9.24,87.1,87.1,0,0,0,145.15,0,8.35,8.35,0,0,0,0-9.24A87,87,0,0,0,305.1,272.48Z"/><circle class="cls-7" cx="305.1" cy="316.05" r="34.03"/><path class="cls-8" d="M305.1,282c-1.14,0-2.26.06-3.38.17-.1,1.11-.16,2.24-.16,3.38a34,34,0,0,0,34,34c1.14,0,2.27,0,3.38-.16.11-1.12.17-2.24.17-3.38A34,34,0,0,0,305.1,282Z"/><rect class="cls-4" x="218.05" y="421.24" width="129.94" height="35.52"/><path class="cls-6" d="M181.53,421.24h32.36a4.16,4.16,0,0,1,4.16,4.16v27.2a4.16,4.16,0,0,1-4.16,4.16H181.53a0,0,0,0,1,0,0V421.24A0,0,0,0,1,181.53,421.24Z" transform="translate(399.58 878.01) rotate(180)"/><path class="cls-3" d="M348,421.24l36.42,14.12a3.91,3.91,0,0,1,0,7.29L348,456.77Z"/><path class="cls-9" d="M384.41,435.36l-10.92-4.23v15.75l10.92-4.23A3.91,3.91,0,0,0,384.41,435.36Z"/><rect class="cls-5" x="218.05" y="433.32" width="129.94" height="11.37"/><path class="cls-3" d="M370.45,85.22A54.43,54.43,0,0,0,342.5,186.46l2.46,1.46V202h51V187.92l2.46-1.46A54.94,54.94,0,0,0,417.72,167a54.45,54.45,0,0,0-47.27-81.73Z"/><path class="cls-4" d="M370.76,165.8h-.61a9.72,9.72,0,0,1-5.49-1.7V202h11.58V164.1a9.67,9.67,0,0,1-5.48,1.7Zm0,0"/><path class="cls-8" d="M370.76,132.68h-.61a10.56,10.56,0,0,0-10.52,10.53V156a10.56,10.56,0,0,0,10.52,10.53h.61A10.56,10.56,0,0,0,381.28,156V143.21A10.56,10.56,0,0,0,370.76,132.68Z"/><path class="cls-9" d="M357.8,234.35v14.91a4.36,4.36,0,0,0,4.34,4.35h16.63a4.36,4.36,0,0,0,4.34-4.35V234.35Z"/><path class="cls-7" d="M397.73,201.23H343.18a3.51,3.51,0,0,0-3.5,3.51v26.87a3.51,3.51,0,0,0,3.5,3.51h54.55a3.51,3.51,0,0,0,3.5-3.51V204.74A3.51,3.51,0,0,0,397.73,201.23Z"/><path class="cls-4" d="M370.45,50.73a5.79,5.79,0,0,0-5.79,5.79v9.75a5.79,5.79,0,0,0,11.58,0V56.52A5.79,5.79,0,0,0,370.45,50.73Z"/><path class="cls-3" d="M345.22,70.49l-4-8.9a5.79,5.79,0,0,0-10.57,4.73l4,8.9a5.81,5.81,0,0,0,5.29,3.43,5.67,5.67,0,0,0,2.36-.51A5.79,5.79,0,0,0,345.22,70.49Z"/><path class="cls-4" d="M318.63,87l-7.28-6.51a5.79,5.79,0,0,0-7.72,8.63l7.28,6.5A5.79,5.79,0,1,0,318.63,87Z"/><path class="cls-3" d="M301.08,112.83l-9.3-3a5.79,5.79,0,0,0-3.54,11l9.3,3a5.79,5.79,0,0,0,3.54-11Z"/><path class="cls-4" d="M302,148.71a5.79,5.79,0,0,0-6.38-5.13l-9.71,1a5.79,5.79,0,0,0,.62,11.55l.63,0,9.71-1.06A5.79,5.79,0,0,0,302,148.71Z"/><path class="cls-3" d="M311.13,176a5.79,5.79,0,0,0-7.91-2.09l-8.44,4.92a5.79,5.79,0,0,0,2.92,10.79,5.72,5.72,0,0,0,2.91-.79l8.44-4.91A5.79,5.79,0,0,0,311.13,176Z"/><path class="cls-3" d="M407.32,58.67a5.79,5.79,0,0,0-7.65,2.92l-4,8.9a5.79,5.79,0,1,0,10.57,4.73l4-8.9A5.8,5.8,0,0,0,407.32,58.67Z"/><path class="cls-4" d="M437.73,80.91a5.79,5.79,0,0,0-8.17-.45L422.28,87A5.79,5.79,0,1,0,430,95.59l7.28-6.5A5.8,5.8,0,0,0,437.73,80.91Z"/><path class="cls-3" d="M456.41,113.59a5.79,5.79,0,0,0-7.28-3.75l-9.3,3a5.79,5.79,0,1,0,3.54,11l9.3-3A5.79,5.79,0,0,0,456.41,113.59Z"/><path class="cls-4" d="M455,144.63l-9.71-1A5.79,5.79,0,1,0,444,155.09l9.71,1.06.63,0a5.79,5.79,0,0,0,.62-11.55Z"/><path class="cls-3" d="M446.13,178.79l-8.44-4.92a5.79,5.79,0,1,0-5.83,10l8.44,4.91a5.69,5.69,0,0,0,2.91.79,5.79,5.79,0,0,0,2.92-10.79Z"/></svg>