<svg id="Layer_1" data-name="Layer 1" xmlns="http://www.w3.org/2000/svg" viewBox="0 0 500 500"><defs><style>.cls-1{fill:#fff;}.cls-1,.cls-5{stroke:#d1d3d4;stroke-linecap:round;stroke-linejoin:round;stroke-width:9px;}.cls-2{fill:#ff671d;}.cls-3{fill:#a50064;}.cls-4{fill:#d41367;}.cls-5{fill:none;}</style></defs><rect class="cls-1" x="129.49" y="111.13" width="252.77" height="311.9"/><polygon class="cls-1" points="338.32 371.79 129.49 423.03 129.49 111.13 338.32 59.89 338.32 371.79"/><polygon class="cls-2" points="148.74 126.22 319.07 84.43 319.07 356.69 148.74 398.48 148.74 126.22"/><path class="cls-3" d="M148.74,398.48s32.68-126.38,81-138.46,45.31-65.89-.75-84.43c-28.59-11.51-26-51.2,90.07-43.81V356.69Z"/><circle class="cls-4" cx="217.6" cy="221.63" r="31.65"/><line class="cls-5" x1="338.32" y1="140.69" x2="361.91" y2="140.69"/><line class="cls-5" x1="338.32" y1="176.84" x2="361.91" y2="176.84"/><line class="cls-5" x1="338.32" y1="212.98" x2="361.91" y2="212.98"/><line class="cls-5" x1="338.32" y1="249.12" x2="361.91" y2="249.12"/><line class="cls-5" x1="338.32" y1="285.26" x2="361.91" y2="285.26"/><line class="cls-5" x1="338.32" y1="321.41" x2="361.91" y2="321.41"/><line class="cls-5" x1="338.32" y1="357.55" x2="361.91" y2="357.55"/><line class="cls-5" x1="255.87" y1="393.69" x2="361.91" y2="393.69"/></svg>