<svg id="Layer_1" data-name="Layer 1" xmlns="http://www.w3.org/2000/svg" viewBox="0 0 500 500"><defs><style>.cls-1,.cls-6{fill:#fff;}.cls-1,.cls-3,.cls-5,.cls-6{stroke:#d1d3d4;stroke-width:9px;}.cls-1,.cls-3,.cls-5{stroke-linecap:round;stroke-linejoin:round;}.cls-2{fill:#d1d3d4;}.cls-3{fill:none;}.cls-4{fill:#ff9e18;}.cls-5{fill:#f1f2f2;}.cls-6{stroke-miterlimit:10;}.cls-7{fill:#ff671d;}.cls-8{fill:#ff4438;}.cls-9{fill:#d41367;}.cls-10{fill:#a50064;}</style></defs><rect class="cls-1" x="174.62" y="75.35" width="202.58" height="215.43"/><rect class="cls-2" x="271.81" y="99.22" width="73.85" height="58.79" rx="3.87"/><line class="cls-3" x1="271.81" y1="183.06" x2="345.66" y2="183.06"/><line class="cls-3" x1="271.81" y1="208.12" x2="345.66" y2="208.12"/><line class="cls-3" x1="271.81" y1="233.18" x2="345.66" y2="233.18"/><line class="cls-3" x1="271.81" y1="258.23" x2="345.66" y2="258.23"/><rect class="cls-1" x="43.69" y="129.8" width="202.58" height="215.43"/><rect class="cls-4" x="75.23" y="153.67" width="139.5" height="58.79" rx="5.32"/><line class="cls-3" x1="75.23" y1="237.51" x2="214.73" y2="237.51"/><line class="cls-3" x1="75.23" y1="262.57" x2="214.73" y2="262.57"/><line class="cls-3" x1="75.23" y1="287.63" x2="214.73" y2="287.63"/><line class="cls-3" x1="75.23" y1="312.68" x2="214.73" y2="312.68"/><polygon class="cls-5" points="246.27 129.8 174.62 75.35 174.62 129.8 246.27 129.8"/><rect class="cls-6" x="139.19" y="229.42" width="317.12" height="195.24" rx="6.4"/><line class="cls-3" x1="297.75" y1="258.09" x2="297.75" y2="395.98"/><path class="cls-4" d="M230.94,348.35a8.62,8.62,0,0,1,10.85-4.82l.1,0a5.16,5.16,0,0,1,.49.21l.12.05a58.74,58.74,0,0,1,18.77,12.63,8.61,8.61,0,0,1-12.11,12.24l-.07-.07-.07-.07a41.48,41.48,0,0,0-13.42-8.95A8.61,8.61,0,0,1,230.94,348.35Z"/><path class="cls-7" d="M219.68,339.21l-8.61,8.61L208.92,350l-18.64,18.64a8.61,8.61,0,0,1-12.18-12.18A58.62,58.62,0,0,1,219.68,339.21Z"/><path class="cls-8" d="M261.27,297.62l-41.58,41.59a58.62,58.62,0,0,0-41.59,17.22l41.59-41.58A58.62,58.62,0,0,0,261.27,297.62Z"/><path class="cls-9" d="M248.9,285.63,240.56,294l-10.11,10.12-2.15,2.14-8.61,8.62a58.63,58.63,0,0,1-41.59-17.23,8.61,8.61,0,1,1,12.18-12.18,41.38,41.38,0,0,0,13.09,8.86l0,0,.73.3a41.77,41.77,0,0,0,31.09,0l.73-.3,0,0A41.16,41.16,0,0,0,248.9,285.63Z"/><path class="cls-10" d="M261.27,297.62a58.62,58.62,0,0,1-41.58,17.23l8.61-8.62,2.15-2.14L240.56,294l8.34-8.34.19-.19.07-.06,0,0a8.61,8.61,0,0,1,12.09,12.26Z"/><rect class="cls-10" x="329.2" y="258.09" width="99.61" height="18.49" rx="9.24"/><rect class="cls-2" x="329.2" y="297.89" width="99.61" height="18.49" rx="9.24"/><rect class="cls-2" x="329.2" y="337.69" width="99.61" height="18.49" rx="9.24"/><rect class="cls-2" x="329.2" y="377.49" width="99.61" height="18.49" rx="9.24"/></svg>