<svg id="Layer_1" data-name="Layer 1" xmlns="http://www.w3.org/2000/svg" viewBox="0 0 500 500"><defs><style>.cls-1,.cls-6{fill:#fff;}.cls-1,.cls-2,.cls-8{stroke:#d1d3d4;stroke-width:9px;}.cls-1{stroke-miterlimit:10;}.cls-2{fill:#f1f2f2;}.cls-2,.cls-8{stroke-linecap:round;stroke-linejoin:round;}.cls-3{fill:#a50064;}.cls-4{fill:#ff9e18;}.cls-5{fill:#d41367;}.cls-7{fill:#ff671d;}.cls-8{fill:none;}</style></defs><path class="cls-1" d="M45,433.35A21.65,21.65,0,0,0,66.65,455h366.7A21.65,21.65,0,0,0,455,433.35V96.48H45Z"/><path class="cls-2" d="M433.35,45H66.65A21.65,21.65,0,0,0,45,66.65V96.48H455V66.65A21.65,21.65,0,0,0,433.35,45Z"/><circle class="cls-3" cx="78.53" cy="70.74" r="7.73"/><circle class="cls-4" cx="101.29" cy="70.74" r="7.73"/><circle class="cls-5" cx="124.05" cy="70.74" r="7.73"/><rect class="cls-6" x="221.2" y="63.01" width="208" height="15.46" rx="7.73"/><path class="cls-5" d="M342.28,333.47a60.43,60.43,0,0,0-59-47.58H216.76a60.43,60.43,0,0,0-59,47.58,124.41,124.41,0,0,0,184.56,0Z"/><path class="cls-7" d="M228.67,250h42.66a0,0,0,0,1,0,0v31A21.33,21.33,0,0,1,250,302.33h0A21.33,21.33,0,0,1,228.67,281V250A0,0,0,0,1,228.67,250Z"/><rect class="cls-4" x="199.83" y="171.3" width="100.34" height="120.3" rx="50.17"/><circle class="cls-8" cx="250" cy="250" r="124.44"/><line class="cls-8" x1="97.77" y1="395.2" x2="120.52" y2="395.2"/><line class="cls-8" x1="142.8" y1="395.2" x2="402.23" y2="395.2"/><line class="cls-8" x1="97.77" y1="422.4" x2="120.52" y2="422.4"/><line class="cls-8" x1="142.8" y1="422.4" x2="402.23" y2="422.4"/></svg>