<svg id="Layer_1" data-name="Layer 1" xmlns="http://www.w3.org/2000/svg" viewBox="0 0 500 500"><defs><style>.cls-1{fill:#f8e47c;}.cls-2{fill:#fff;stroke-miterlimit:10;}.cls-2,.cls-8{stroke:#d1d3d4;stroke-width:9px;}.cls-3{fill:#ff9e18;}.cls-4{fill:#ff671d;}.cls-5{fill:#ff4438;}.cls-6{fill:#d41367;}.cls-7{fill:#a50064;}.cls-8{fill:#f1f2f2;stroke-linecap:round;stroke-linejoin:round;}</style></defs><path id="SVGCleanerId_0" data-name="SVGCleanerId 0" class="cls-1" d="M437.75,250.75a188.43,188.43,0,0,0-4-38.43C413.07,113.19,316.37,48.06,216.71,66,115,84.34,47.18,181.49,65.14,283.35A187.78,187.78,0,0,0,223.25,436.61,35.43,35.43,0,0,0,251.76,428l177-157.11A26.9,26.9,0,0,0,437.75,250.75Z"/><path id="SVGCleanerId_0-2" data-name="SVGCleanerId 0" class="cls-2" d="M437.75,250.75a188.43,188.43,0,0,0-4-38.43C413.07,113.19,316.37,48.06,216.71,66,115,84.34,47.18,181.49,65.14,283.35A187.78,187.78,0,0,0,223.25,436.61,35.43,35.43,0,0,0,251.76,428l177-157.11A26.9,26.9,0,0,0,437.75,250.75Z"/><path class="cls-3" d="M271,294.87a16.11,16.11,0,0,1,20.28-9,.45.45,0,0,1,.18.07c.31.11.62.24.93.38l.22.09A110.07,110.07,0,0,1,327.71,310a16.09,16.09,0,0,1-22.63,22.88l-.13-.12-.13-.13a77.29,77.29,0,0,0-25.07-16.73A16.1,16.1,0,0,1,271,294.87Z"/><path class="cls-4" d="M250,277.79l-16.08,16.08-4,4L195,332.73A16.09,16.09,0,0,1,172.28,310,109.53,109.53,0,0,1,250,277.79Z"/><path class="cls-5" d="M327.72,200.07,250,277.79A109.55,109.55,0,0,0,172.28,310L250,232.26A109.55,109.55,0,0,0,327.72,200.07Z"/><path class="cls-6" d="M304.6,177.67,289,193.24l-18.91,18.91-4,4L250,232.26a109.55,109.55,0,0,1-77.72-32.19A16.09,16.09,0,0,1,195,177.31a77.51,77.51,0,0,0,24.46,16.55l.09,0,1.36.57a78.15,78.15,0,0,0,58.1,0l1.36-.57.09,0A77.29,77.29,0,0,0,304.6,177.67Z"/><path class="cls-7" d="M327.72,200.07A109.55,109.55,0,0,1,250,232.26l16.09-16.1,4-4L289,193.24l15.58-15.57.35-.36.13-.12,0,0a16.09,16.09,0,0,1,22.6,22.92Z"/><path class="cls-8" d="M251.76,428l177.1-157.22A26.41,26.41,0,0,0,437.73,251v-.13c0,7.39-7.49,12.25-14.77,12.17v0A187.78,187.78,0,0,0,241.66,424.16c-2,10.47-14.6,12.82-18.48,12.43l.17,0A35.33,35.33,0,0,0,251.76,428Z"/></svg>