<svg id="Layer_1" data-name="Layer 1" xmlns="http://www.w3.org/2000/svg" viewBox="0 0 500 500"><defs><style>.cls-1,.cls-5{fill:#fff;}.cls-1,.cls-3,.cls-4{stroke:#d1d3d4;}.cls-1{stroke-miterlimit:10;}.cls-1,.cls-3,.cls-4,.cls-6{stroke-width:9px;}.cls-2{fill:#60269e;}.cls-3,.cls-4,.cls-6{fill:none;stroke-linecap:round;stroke-linejoin:round;}.cls-4{stroke-dasharray:20.33 20.33;}.cls-6{stroke:#fff;}</style></defs><rect class="cls-1" x="46.87" y="85" width="406.26" height="234.56" rx="10.69"/><rect class="cls-2" x="149.95" y="16.39" width="200.09" height="371.79" rx="3.59" transform="translate(452.28 -47.72) rotate(90)"/><line class="cls-3" x1="46.87" y1="415" x2="56.87" y2="415"/><line class="cls-4" x1="77.2" y1="415" x2="432.96" y2="415"/><line class="cls-3" x1="443.13" y1="415" x2="453.13" y2="415"/><line class="cls-3" x1="46.87" y1="367.28" x2="453.13" y2="367.28"/><path class="cls-5" d="M312.22,163.7a53.09,53.09,0,0,1-14.7,4,25.36,25.36,0,0,0,11.23-14.1,51.13,51.13,0,0,1-16.18,6.18,25.51,25.51,0,0,0-44.13,17.44,26.24,26.24,0,0,0,.59,5.82,72.22,72.22,0,0,1-52.59-26.68,25.52,25.52,0,0,0,7.84,34.09,25,25,0,0,1-11.52-3.14v.28a25.62,25.62,0,0,0,20.44,25.07,25.39,25.39,0,0,1-6.69.84,22,22,0,0,1-4.83-.44,25.74,25.74,0,0,0,23.84,17.78,51.29,51.29,0,0,1-31.64,10.88,48.89,48.89,0,0,1-6.1-.35,71.79,71.79,0,0,0,39.14,11.45c46.94,0,72.61-38.89,72.61-72.6,0-1.13,0-2.22-.09-3.3A50.94,50.94,0,0,0,312.22,163.7Z"/><line class="cls-6" x1="82.78" y1="250" x2="116.66" y2="250"/><line class="cls-6" x1="82.78" y1="276.89" x2="140.2" y2="276.89"/></svg>