<svg id="Layer_1" data-name="Layer 1" xmlns="http://www.w3.org/2000/svg" viewBox="0 0 500 500"><defs><style>.cls-1,.cls-6{fill:#fff;}.cls-1,.cls-2{stroke:#d1d3d4;stroke-miterlimit:10;stroke-width:9px;}.cls-2,.cls-7{fill:#f1f2f2;}.cls-3{fill:#a50064;}.cls-4{fill:#ff9e18;}.cls-5{fill:#d41367;}.cls-8{fill:none;stroke:#fff;stroke-linecap:round;stroke-linejoin:round;stroke-width:5px;}.cls-9{fill:#ff671d;}</style></defs><path class="cls-1" d="M45,433.35A21.65,21.65,0,0,0,66.65,455h366.7A21.65,21.65,0,0,0,455,433.35V96.48H45Z"/><path class="cls-2" d="M433.35,45H66.65A21.65,21.65,0,0,0,45,66.65V96.48H455V66.65A21.65,21.65,0,0,0,433.35,45Z"/><circle class="cls-3" cx="78.53" cy="70.74" r="7.73"/><circle class="cls-4" cx="101.29" cy="70.74" r="7.73"/><circle class="cls-5" cx="124.05" cy="70.74" r="7.73"/><rect class="cls-6" x="221.2" y="63.01" width="208" height="15.46" rx="7.73"/><path class="cls-7" d="M122.13,124.33H424.42a4.78,4.78,0,0,1,4.78,4.78v41.77a4.78,4.78,0,0,1-4.78,4.78H122.13a0,0,0,0,1,0,0V124.33A0,0,0,0,1,122.13,124.33Z"/><path class="cls-4" d="M75.58,124.33h46.55a0,0,0,0,1,0,0v51.33a0,0,0,0,1,0,0H75.58a4.78,4.78,0,0,1-4.78-4.78V129.11A4.78,4.78,0,0,1,75.58,124.33Z"/><circle class="cls-8" cx="95.52" cy="149.05" r="12.06"/><line class="cls-8" x1="104.05" y1="157.58" x2="109.48" y2="163.01"/><rect class="cls-7" x="70.8" y="206.87" width="231.11" height="216.93"/><path class="cls-5" d="M215.42,265.08,101.29,423.8H301.91V322.49l-41.28-57.41A27.84,27.84,0,0,0,215.42,265.08Z"/><path class="cls-9" d="M131.81,339l-61,84.85H238L177,339A27.85,27.85,0,0,0,131.81,339Z"/><circle class="cls-4" cx="124.05" cy="262.86" r="25.62"/><rect class="cls-4" x="325.2" y="206.87" width="104" height="55.99"/><rect class="cls-4" x="325.2" y="287.33" width="104" height="55.99"/><rect class="cls-4" x="325.2" y="367.8" width="104" height="55.99"/></svg>