<svg id="Layer_1" data-name="Layer 1" xmlns="http://www.w3.org/2000/svg" viewBox="0 0 500 500"><defs><style>.cls-1,.cls-11,.cls-6{fill:#fff;}.cls-1,.cls-11,.cls-2,.cls-7{stroke:#d1d3d4;}.cls-1,.cls-2{stroke-miterlimit:10;}.cls-1,.cls-11,.cls-12,.cls-2,.cls-7{stroke-width:9px;}.cls-2{fill:#f1f2f2;}.cls-3{fill:#a50064;}.cls-4{fill:#ff9e18;}.cls-5{fill:#d41367;}.cls-12,.cls-7,.cls-8{fill:none;}.cls-11,.cls-12,.cls-7{stroke-linecap:round;stroke-linejoin:round;}.cls-9{fill:#ff671d;}.cls-10{fill:#e6e7e8;}.cls-12{stroke:#d41367;}</style></defs><path class="cls-1" d="M45,433.35A21.65,21.65,0,0,0,66.65,455h366.7A21.65,21.65,0,0,0,455,433.35V96.48H45Z"/><path class="cls-2" d="M433.35,45H66.65A21.65,21.65,0,0,0,45,66.65V96.48H455V66.65A21.65,21.65,0,0,0,433.35,45Z"/><circle class="cls-3" cx="78.53" cy="70.74" r="7.73"/><circle class="cls-4" cx="101.29" cy="70.74" r="7.73"/><circle class="cls-5" cx="124.05" cy="70.74" r="7.73"/><rect class="cls-6" x="221.2" y="63.01" width="208" height="15.46" rx="7.73"/><line class="cls-7" x1="45" y1="275.74" x2="455" y2="275.74"/><path class="cls-8" d="M207.28,283.92c3.22-6.81,3.84-11.28,2.62-12.5s-5.69-.6-12.5,2.62a46.9,46.9,0,0,1,9.88,9.88Z"/><path class="cls-8" d="M131.07,340.36c-3.21,6.82-3.84,11.29-2.62,12.51s5.69.59,12.51-2.62a47.63,47.63,0,0,1-9.89-9.89Z"/><rect class="cls-9" x="262.38" y="146.36" width="151.24" height="188.55" rx="7.14"/><rect class="cls-4" x="86.38" y="217.87" width="151.24" height="188.55" rx="7.14"/><path class="cls-6" d="M177.9,328c-11,11-23.55,21.2-34.82,27.58a47.42,47.42,0,0,0,62.4-62.4C199.1,304.5,188.88,317.05,177.9,328Z"/><path class="cls-6" d="M190.22,274a47.42,47.42,0,0,0-56.44,76.21c9.1-4.29,22.39-13.21,37.75-28.57s24.29-28.66,28.58-37.76a48.53,48.53,0,0,0-4.58-5.31A47.37,47.37,0,0,0,190.22,274Z"/><path class="cls-5" d="M180.92,268.66a47.19,47.19,0,0,1,9.3,5.38c6.81-3.22,11.28-3.84,12.5-2.62s.6,5.69-2.61,12.5c-4.29,9.1-13.21,22.39-28.58,37.76S142.88,346,133.78,350.25c-6.81,3.21-11.28,3.84-12.5,2.62s-.6-5.69,2.61-12.51a47.14,47.14,0,0,1-5.37-9.3c-6.79,12-9.24,22.54-3.61,28.17s16.17,3.18,28.17-3.61C154.35,349.24,166.91,339,177.9,328s21.2-23.54,27.58-34.82c6.79-12,9.24-22.53,3.61-28.17S192.92,261.87,180.92,268.66Z"/><circle class="cls-10" cx="133.39" cy="321.08" r="11.01"/><circle class="cls-10" cx="140.7" cy="297.63" r="4.8"/><line class="cls-11" x1="93.56" y1="183.67" x2="176.67" y2="183.67"/><line class="cls-11" x1="93.56" y1="149.46" x2="221.2" y2="149.46"/><line class="cls-12" x1="408.03" y1="359.55" x2="355.03" y2="359.55"/><line class="cls-7" x1="408.03" y1="397.18" x2="294.37" y2="397.18"/><circle class="cls-4" cx="338" cy="240.64" r="50.65"/><circle class="cls-6" cx="318.2" cy="220.38" r="6.42"/><circle class="cls-6" cx="366.94" cy="228.3" r="6.42"/><circle class="cls-6" cx="362.06" cy="261.93" r="6.42"/><circle class="cls-6" cx="349.42" cy="244.91" r="3.21"/></svg>