<svg id="Layer_1" data-name="Layer 1" xmlns="http://www.w3.org/2000/svg" viewBox="0 0 500 500"><defs><style>.cls-1,.cls-5,.cls-7{fill:#fff;}.cls-1,.cls-3,.cls-4,.cls-5{stroke:#d1d3d4;}.cls-1{stroke-miterlimit:10;}.cls-1,.cls-3,.cls-4,.cls-5,.cls-6{stroke-width:9px;}.cls-2{fill:#ff4438;}.cls-3,.cls-4,.cls-6{fill:none;}.cls-3,.cls-4,.cls-5,.cls-6{stroke-linecap:round;stroke-linejoin:round;}.cls-4{stroke-dasharray:20.33 20.33;}.cls-6{stroke:#fff;}</style></defs><rect class="cls-1" x="46.87" y="85" width="406.26" height="234.56" rx="10.69"/><rect class="cls-2" x="149.95" y="16.39" width="200.09" height="371.79" rx="3.59" transform="translate(452.28 -47.72) rotate(90)"/><line class="cls-3" x1="46.87" y1="415" x2="56.87" y2="415"/><line class="cls-4" x1="77.2" y1="415" x2="432.96" y2="415"/><line class="cls-3" x1="443.13" y1="415" x2="453.13" y2="415"/><line class="cls-5" x1="46.87" y1="367.28" x2="453.13" y2="367.28"/><line class="cls-6" x1="84.11" y1="250" x2="117.99" y2="250"/><line class="cls-6" x1="84.11" y1="276.89" x2="141.54" y2="276.89"/><path class="cls-7" d="M315.34,169.5a17.07,17.07,0,0,0-12-12c-10.66-2.92-53.33-2.92-53.33-2.92s-42.67,0-53.33,2.81a17.43,17.43,0,0,0-12,12.13c-2.8,10.66-2.8,32.78-2.8,32.78s0,22.23,2.8,32.79a17.1,17.1,0,0,0,12,12C207.45,250,250,250,250,250s42.67,0,53.33-2.81a17.09,17.09,0,0,0,12-12c2.8-10.67,2.8-32.79,2.8-32.79S318.27,180.16,315.34,169.5Zm-78.93,53.22V181.85l35.48,20.43Z"/></svg>